<svg xmlns="http://www.w3.org/2000/svg" width="30" height="40" fill="none"><g clip-path="url(#a)"><path fill="#445727" d="M7.405 6.47S10.23 0 7.405 0C4.817 0 6.17 6.47 6.17 6.47M5.05 7.589S2.286 1.177.345 3.236C-1.42 5.118 4.168 8.47 4.168 8.47"/><path fill="#657F33" d="M11.637 17.88s.647-12.353-5.06-12.353c-5.705 0-7.587 11.412 2.53 15.177l2.53-2.824ZM18.813 28.057s8.294-7.647 9.823-3.882c1.53 3.706-.706 10.059-9.823 6.412"/><path fill="#81A643" d="M9.757 39.998s-9.294-19.883 4.118-25c13.412-5.118 8.765 19.117.47 25H9.757Z"/><path fill="#657F33" d="M10.875 35.352c.117-.058-.06-.176-.118-.117-.118.059-.176.176-.294.294-.118-.118-.176-.235-.294-.294-.059-.059-.177.059-.118.117.118.118.236.236.294.353a1.23 1.23 0 0 0-.235.353c-.059.118.118.177.118.06.059-.119.117-.236.235-.295.059.059.118.176.235.294.06.059.177 0 .118-.059a1.284 1.284 0 0 0-.235-.294c.058-.235.176-.353.294-.412ZM18.289 31.474c.117-.06-.059-.177-.118-.118-.117.059-.176.176-.294.294-.118-.118-.176-.235-.294-.294-.059-.059-.177.059-.118.117.118.118.236.236.294.354-.117.117-.176.235-.235.352-.059.118.118.177.118.06.059-.118.117-.236.235-.295.059.059.118.177.235.294.06.06.177 0 .118-.059a1.286 1.286 0 0 0-.235-.294c.117-.235.176-.294.294-.412ZM13.933 31.997c.118-.059-.059-.177-.117-.118-.118.06-.177.177-.295.294-.117-.117-.176-.235-.294-.294-.058-.059-.176.06-.117.118.117.118.235.235.294.353a1.23 1.23 0 0 0-.235.353c-.06.117.117.176.117.059.06-.118.118-.236.236-.294.058.058.117.176.235.294.059.059.176 0 .117-.06a1.284 1.284 0 0 0-.235-.293c.118-.236.177-.294.294-.412ZM17.52 36.88c.117-.06-.06-.177-.118-.118-.118.059-.177.177-.294.294-.118-.117-.177-.235-.295-.294-.058-.059-.176.059-.117.118.117.117.235.235.294.353-.118.117-.177.235-.235.353-.06.117.117.176.117.059.059-.118.118-.236.236-.295.058.06.117.177.235.294.059.06.176 0 .117-.058-.058-.118-.176-.236-.235-.294.118-.236.177-.353.294-.412ZM19.289 21c.117-.058-.059-.176-.118-.117-.117.059-.176.177-.294.294-.118-.117-.176-.235-.294-.294-.059-.059-.177.059-.118.118.118.117.236.235.294.353a1.23 1.23 0 0 0-.235.353c-.059.117.118.176.118.059.059-.118.117-.236.235-.294.059.058.118.176.235.294.06.058.177 0 .118-.06-.059-.117-.177-.235-.235-.293.117-.236.235-.353.294-.412ZM10.344 22.528c.117-.059-.06-.176-.118-.117-.118.058-.177.176-.294.294-.118-.118-.177-.236-.294-.294-.06-.06-.177.058-.118.117.118.118.235.236.294.353a1.23 1.23 0 0 0-.235.353c-.06.118.117.177.117.059.06-.118.118-.235.236-.294.059.059.117.176.235.294.059.059.177 0 .118-.059a1.279 1.279 0 0 0-.236-.294c.118-.235.177-.294.295-.412ZM7.285 23.06c.118-.06-.059-.177-.118-.118-.117.059-.176.176-.294.294-.118-.118-.176-.235-.294-.294-.059-.059-.176.059-.118.117.118.118.236.236.294.353-.117.118-.176.236-.235.353-.059.118.118.177.118.06.059-.119.117-.236.235-.295.059.059.118.176.235.294.06.059.177 0 .118-.059a1.284 1.284 0 0 0-.235-.294c.117-.235.176-.353.294-.412ZM13.406 18.938c.118-.058-.059-.176-.118-.117-.117.058-.176.176-.294.294-.117-.118-.176-.235-.294-.294-.059-.06-.176.058-.118.117.118.118.236.236.295.353-.118.118-.177.236-.236.353-.059.118.118.177.118.06.059-.119.118-.236.235-.295.059.059.118.176.236.294.058.059.176 0 .117-.059-.059-.117-.176-.235-.235-.294.117-.235.235-.294.294-.412Z"/><path fill="#35441C" d="M8.582 15.118c.117-.059-.06-.176-.118-.118-.118.06-.176.177-.294.294-.118-.117-.176-.235-.294-.294-.059-.058-.177.06-.118.118.118.118.236.235.294.353-.117.118-.176.235-.235.353s.118.176.118.059c.059-.118.117-.235.235-.294.059.059.118.176.235.294.06.059.177 0 .118-.06a1.284 1.284 0 0 0-.235-.293c.058-.236.176-.353.294-.412ZM9.343 11.294c.118-.059-.058-.177-.117-.118-.118.059-.177.177-.294.294-.118-.117-.177-.235-.294-.294-.06-.059-.177.059-.118.118.118.117.235.235.294.353-.118.117-.176.235-.235.353-.06.117.117.176.117.059.06-.118.118-.236.236-.295.059.06.117.177.235.295.059.058.176 0 .118-.06a1.284 1.284 0 0 0-.236-.293c.06-.236.177-.353.294-.412ZM12.168 13.352c.117-.058-.06-.176-.118-.117-.118.059-.176.176-.294.294-.118-.118-.177-.235-.294-.294-.059-.059-.177.059-.118.117.118.118.236.236.294.353-.117.118-.176.236-.235.353-.059.118.118.177.118.06.058-.119.117-.236.235-.295.059.059.118.176.235.294.059.059.177 0 .118-.059a1.286 1.286 0 0 0-.235-.294c.058-.235.176-.353.294-.412ZM24.406 27.645c.118-.058-.059-.176-.118-.117-.117.059-.176.176-.294.294-.117-.118-.176-.235-.294-.294-.059-.06-.176.059-.118.117.118.118.236.236.295.353a1.23 1.23 0 0 0-.236.353c-.059.118.118.177.118.06.059-.119.118-.236.235-.295.059.059.118.177.236.294.058.059.176 0 .117-.059a1.281 1.281 0 0 0-.235-.294c.118-.235.235-.294.294-.412ZM26.988 24.821c.118-.059-.059-.176-.118-.118-.117.06-.176.177-.294.295-.117-.118-.176-.236-.294-.295-.059-.058-.176.06-.117.118.117.118.235.235.294.353a1.23 1.23 0 0 0-.236.353c-.058.118.118.176.118.059.059-.118.118-.235.235-.294.06.059.118.176.235.294.06.059.177 0 .118-.059-.059-.118-.176-.235-.235-.294.117-.235.176-.294.294-.412ZM27.52 28.415c.117-.059-.06-.177-.118-.118-.118.06-.177.177-.294.294-.118-.117-.177-.235-.295-.294-.058-.059-.176.06-.117.118.117.118.235.235.294.353-.118.117-.177.235-.235.353-.06.117.117.176.117.059.059-.118.118-.236.236-.294.058.058.117.176.235.294.059.058.176 0 .117-.06a1.28 1.28 0 0 0-.235-.293c.059-.236.177-.294.294-.412ZM24.93 31.235c.117-.059-.06-.176-.118-.117-.118.058-.177.176-.294.294-.118-.118-.177-.236-.294-.294-.06-.06-.177.058-.118.117.117.118.235.236.294.353-.118.118-.176.235-.235.353-.06.118.117.177.117.059.06-.118.118-.235.236-.294.058.059.117.176.235.294.059.059.176 0 .118-.059-.06-.117-.177-.235-.236-.294.118-.235.177-.353.294-.412ZM24.93 23.587c.117-.059-.06-.177-.118-.118-.118.059-.177.177-.294.294-.118-.117-.177-.235-.294-.294-.06-.059-.177.059-.118.118.117.117.235.235.294.353a1.23 1.23 0 0 0-.235.353c-.06.117.117.176.117.059.06-.118.118-.236.236-.295.058.06.117.177.235.295.059.058.176 0 .118-.06-.06-.117-.177-.235-.236-.293.118-.236.177-.353.294-.412ZM28.758 23.06c.117-.06-.06-.177-.118-.118-.118.059-.177.176-.294.294-.118-.118-.177-.235-.294-.294-.06-.059-.177.059-.118.117.118.118.235.236.294.353a1.23 1.23 0 0 0-.235.353c-.059.118.117.177.117.06.06-.119.118-.236.236-.295.059.059.117.176.235.294.059.059.177 0 .118-.059-.06-.117-.177-.235-.236-.294.118-.235.236-.353.294-.412ZM8.582 3.352c.117-.058-.06-.176-.118-.117-.118.059-.176.176-.294.294-.118-.118-.176-.235-.294-.294-.059-.059-.177.059-.118.117.118.118.236.236.294.353-.117.118-.176.236-.235.353-.059.118.118.177.118.06.059-.119.117-.236.235-.295.059.059.118.176.235.294.06.059.177 0 .118-.059-.059-.117-.177-.235-.235-.294.058-.235.176-.353.294-.412ZM7.52 1.06C7.636 1 7.46.883 7.401.942c-.118.059-.177.177-.295.235-.117-.117-.176-.235-.294-.294-.058-.059-.176.059-.117.118.117.118.235.235.294.353-.118.117-.177.235-.235.353 0 .059.117.176.176.059.059-.118.118-.236.235-.295.06.06.118.177.236.295.058.058.176 0 .117-.06a1.283 1.283 0 0 0-.235-.293.905.905 0 0 1 .235-.353ZM6.288 2.821c.118-.058-.059-.176-.118-.117a.709.709 0 0 0-.294.294c-.117-.118-.235-.235-.294-.353-.118-.059-.176.059-.118.118.118.117.236.235.295.353-.118.117-.177.235-.236.352-.059.118.118.177.118.06.059-.118.118-.236.235-.295.06.059.118.177.177.294.059.06.176 0 .117-.059a1.283 1.283 0 0 0-.235-.294c.118-.176.235-.235.353-.353ZM3.46 3.883c.118-.059-.058-.176-.117-.118-.118.06-.235.118-.294.236-.118-.118-.235-.177-.294-.294-.06-.06-.177 0-.118.117.118.06.177.177.294.294-.059.118-.176.236-.235.353-.059.118.118.177.176.118l.177-.353c.059.059.118.177.235.294.059.059.177 0 .118-.059-.059-.117-.177-.235-.235-.353.058-.058.176-.176.294-.235ZM2.168 6.177c.117-.06-.06-.177-.118-.118-.118.059-.176.176-.294.294-.118-.118-.177-.235-.294-.294-.059-.059-.177.059-.118.118.118.117.235.235.294.353a1.23 1.23 0 0 0-.235.353c-.059.117.118.176.118.058.058-.117.117-.235.235-.294.059.06.118.177.235.294.059.06.177 0 .118-.058-.059-.118-.177-.236-.235-.295.117-.235.176-.353.294-.411ZM.875 3.353c.117-.06-.06-.177-.118-.118-.118.059-.176.176-.294.235l-.294-.294c-.059-.059-.177.059-.118.118.118.117.235.235.353.294A.948.948 0 0 0 .17 4c-.059.059.059.176.117.059.06-.118.118-.236.236-.295.059.06.117.177.176.236.06.059.177 0 .118-.06-.059-.117-.118-.234-.235-.293.117-.118.176-.236.294-.294ZM29.523 26.356c.118-.059-.059-.176-.117-.117-.118.058-.177.176-.295.294-.117-.118-.176-.236-.294-.294-.059-.06-.176.058-.117.117.117.118.235.236.294.353-.118.118-.177.236-.236.353-.058.118.118.177.118.059.059-.118.118-.235.235-.294.06.059.118.176.236.294.058.059.176 0 .117-.059a1.28 1.28 0 0 0-.235-.294c.118-.235.235-.294.294-.412ZM10.344 7.411c.117-.059-.06-.176-.118-.118-.118.06-.177.177-.294.294-.118-.117-.177-.235-.294-.294-.06-.058-.177.06-.118.118.118.118.235.235.294.353-.118.118-.176.235-.235.353-.06.118.117.176.117.059.06-.118.118-.236.236-.294.059.058.117.176.235.294.059.059.177 0 .118-.06a1.28 1.28 0 0 0-.236-.293c.118-.236.177-.294.295-.412ZM4.992 10c.118-.058-.059-.176-.118-.117-.117.059-.176.177-.294.294-.118-.117-.176-.235-.294-.294-.059-.059-.176.059-.118.118.118.117.236.235.294.353a1.232 1.232 0 0 0-.235.353c-.059.117.118.176.118.059.059-.118.117-.236.235-.294.059 0 .177.117.235.176.06.059.177 0 .118-.059a1.284 1.284 0 0 0-.235-.294.708.708 0 0 1 .294-.294ZM2.699 13.352c.118-.058-.059-.176-.118-.117-.117.059-.176.176-.294.294-.117-.118-.176-.235-.294-.294-.059-.059-.176.059-.118.117.118.118.236.236.295.353-.118.118-.177.236-.236.353-.059.118.118.177.118.06.059-.119.118-.236.235-.295.059.059.118.176.235.294.06.059.177 0 .118-.059a1.284 1.284 0 0 0-.235-.294c.059-.235.176-.353.294-.412ZM4.46 17.176c.118-.059-.058-.177-.117-.118-.118.059-.176.177-.294.294-.118-.117-.177-.235-.294-.294-.06-.117-.177 0-.118.059.118.118.235.235.294.353a1.23 1.23 0 0 0-.235.353c-.059.117.118.176.118.059.058-.118.117-.236.235-.294.118.058.176.176.235.235s.177 0 .118-.059c-.059-.118-.118-.235-.235-.353.117-.059.176-.176.294-.235ZM7.285 7.177c.118-.06-.059-.177-.118-.118-.117.059-.176.176-.294.294-.118-.118-.176-.235-.294-.294-.059-.059-.176.059-.118.118.118.117.236.235.294.353a1.23 1.23 0 0 0-.235.353c-.059.117.118.176.118.058.059-.117.117-.235.235-.294.059.06.118.177.235.294.06.06.177 0 .118-.058-.059-.118-.176-.236-.235-.295.117-.235.176-.294.294-.411Z"/><path fill="#657F33" d="M10.11 28.704c.117-.059-.06-.177-.119-.118-.117.06-.176.177-.294.295-.117-.118-.176-.236-.294-.295-.059-.058-.176.06-.117.118.117.118.235.235.294.353a1.23 1.23 0 0 0-.236.353c-.058 0 .118.059.177 0 .059-.118.117-.235.235-.294.059.059.118.176.235.294.06.059.177 0 .118-.059-.059-.118-.176-.235-.235-.294 0-.176.117-.294.235-.353ZM7.816 31.997c.118-.059-.059-.177-.118-.118-.117.06-.176.177-.294.294-.117-.117-.176-.235-.294-.294-.059-.059-.176.06-.117.118.117.118.235.235.294.353-.118.117-.177.235-.236.353-.058.117.118.176.118.059.059-.118.118-.236.235-.294.06.058.118.176.236.294.058.059.176 0 .117-.06a1.284 1.284 0 0 0-.235-.293c.059-.236.176-.294.294-.412ZM18.289 26.356c.117-.059-.059-.176-.118-.117-.117.058-.176.176-.294.294-.118-.118-.176-.236-.294-.294-.059-.06-.177.058-.118.117.118.118.236.236.294.353-.117.118-.176.236-.235.353-.059.118.118.177.118.059.059-.118.117-.235.235-.294.059.059.118.176.235.294.06.059.177 0 .118-.059a1.286 1.286 0 0 0-.235-.294c.117-.235.176-.294.294-.412ZM22.636 22.528c.118-.059-.058-.176-.117-.117-.118.058-.177.176-.294.294-.118-.118-.177-.236-.294-.294-.06-.06-.177.058-.118.117.118.118.235.236.294.353-.118.118-.176.235-.235.353-.06.118.117.177.117.059.06-.118.118-.235.236-.294.058.059.117.176.235.294.059.059.176 0 .118-.059-.06-.118-.177-.235-.236-.294.118-.235.177-.294.294-.412ZM21.87 17.177c.118-.06-.058-.177-.117-.118-.117.059-.176.176-.294.294-.118-.118-.176-.235-.294-.294-.059-.059-.177.059-.118.118.118.117.236.235.294.353a1.23 1.23 0 0 0-.235.352c-.059.118.118.177.118.06.059-.118.117-.236.235-.295.059.06.118.177.235.294.06.06.177 0 .118-.058-.059-.118-.177-.236-.235-.295.117-.235.176-.353.294-.411ZM18.816 13.821c.118-.059-.059-.176-.117-.117-.118.058-.177.176-.295.294-.117-.118-.176-.236-.294-.294-.059-.06-.176.058-.117.117.117.118.235.236.294.353a1.231 1.231 0 0 0-.236.353c-.058.118.118.177.118.059.059-.118.118-.235.235-.294.06.059.118.176.236.294.058.059.176 0 .117-.059-.059-.118-.176-.235-.235-.294.059-.235.177-.294.294-.412ZM13.406 14.884c.118-.06-.059-.177-.118-.118-.117.059-.176.177-.294.294-.117-.117-.176-.235-.294-.294-.059-.059-.176.059-.118.118.118.117.236.235.295.353a1.23 1.23 0 0 0-.236.353c-.059.117.118.176.118.058.059-.117.118-.235.235-.294.059.06.118.177.236.294.058.06.176 0 .117-.058-.059-.118-.176-.236-.235-.295a1.46 1.46 0 0 1 .294-.411ZM21.636 28.415c.118-.059-.058-.177-.117-.118-.118.06-.177.177-.294.294-.118-.117-.177-.235-.294-.294-.06-.059-.177.06-.118.118.118.118.235.235.294.353-.118.117-.176.235-.235.353-.06.117.117.176.117.059.06-.118.118-.236.236-.294.058.058.117.176.235.294.059.058.176 0 .118-.06-.06-.117-.177-.235-.236-.293.06-.236.177-.294.294-.412ZM14.46 24.352c.118-.058-.058-.176-.117-.117-.118.059-.177.176-.294.294-.118-.118-.177-.235-.294-.294-.06-.059-.177.059-.118.117.118.118.235.236.294.353-.117.118-.176.236-.235.353-.059.118.118.177.118.06.058-.118.117-.236.235-.295.059.059.117.177.235.294.059.059.177 0 .118-.059a1.28 1.28 0 0 0-.236-.294c.06-.235.177-.353.295-.412Z"/></g><defs><clipPath id="a"><path fill="#fff" d="M0 0h30v40H0z"/></clipPath></defs></svg>