<svg xmlns="http://www.w3.org/2000/svg" width="56" height="194" fill="none"><g clip-path="url(#a)"><path fill="#002A50" d="M5.84 49.625 0 193.999l55.65-.15-3.493-143.774-46.317-.45Z"/><path fill="#002A50" d="M56.032 43.833 1.43 43.32l-.06 6.304 54.603.512.06-6.303Z"/><path fill="#EDEEF0" d="m12.18 43.422.3-32.217 14.972-6.353h3.544l15.123 7.053-.3 31.817-33.64-.3Z"/><path fill="#EDEDED" d="m12.509 11.4-.224 23.913 33.64.315.224-23.912-33.64-.316Z"/><path fill="#002A50" d="M27.45 4.853V0l3.343.05-.05 4.803h-2.745"/><path fill="#F7F7F8" d="m53.004 86.293-48.663-.5-1.298 32.867 50.81.5-.85-32.867Z" opacity=".94"/><path fill="#002A50" d="M50.012 43.772s-.05-.2-.05-.55c0-.4 0-.9-.05-1.55v-5.704l.15.15c-5.24 0-12.827-.05-21.312-.1-8.435-.1-16.071-.2-21.312-.3l.15-.15c-.05 2.351-.1 4.302-.15 5.703 0 .6-.05 1.15-.05 1.55 0 .351-.05.551-.05.551s-.05-.2-.05-.55c0-.4 0-.9-.05-1.551V35.418h.15c5.24 0 12.827.05 21.312.1 8.435.1 16.071.2 21.312.3h.15v.15c-.05 2.351-.1 4.302-.15 5.703 0 .6-.05 1.15-.05 1.551.1.35.1.55.05.55Z"/><path fill="#002A50" d="M37.885 43.622c-.15 0-.25-1.751-.2-3.852 0-2.151.15-3.852.3-3.852s.249 1.75.199 3.852c0 2.151-.15 3.852-.3 3.852ZM22.162 43.474c-.15 0-.25-1.751-.2-3.852 0-2.152.15-3.852.3-3.852s.25 1.75.2 3.851c-.05 2.152-.15 3.852-.3 3.852Z"/><path fill="#2D3536" d="M21.961 35.42c-.15 0-.2-5.353-.15-11.956.05-6.603.25-11.956.35-11.956.15 0 .2 5.353.15 11.956-.05 6.603-.2 11.956-.35 11.956ZM35.188 35.518c-.15 0-.2-5.353-.15-11.956.05-6.604.2-11.957.35-11.957.15 0 .2 5.353.15 11.957-.1 6.603-.25 11.956-.35 11.956Z"/><path fill="#2D3536" d="M46.02 23.761c0 .05-.45.05-1.298.1-.948 0-2.146.05-3.594.05-3.044.05-7.237.05-11.878.05-4.642 0-8.835-.1-11.88-.15-3.044-.1-4.94-.25-4.94-.35 2.495 0 8.285 0 16.82.05 4.592.05 8.734.1 11.878.1 1.448.05 2.646.05 3.594.1.799-.05 1.298 0 1.298.05Z"/><path fill="#F7F7F8" d="m1.648 153.078 53.056.5.798 33.017-55.201-.75 1.347-32.767Z" opacity=".94"/><path fill="#001D31" d="m10.677 66.25-2.595-.023-.094 10.105 2.595.024.094-10.105ZM47.865 99.169l-2.596-.025-.094 10.106 2.596.024.094-10.105ZM9.529 132.087l-2.595-.025-.095 10.106 2.596.024.094-10.105ZM49.81 169.157l-2.595-.024-.095 10.105 2.596.024.094-10.105Z"/></g><defs><clipPath id="a"><path fill="#fff" d="M0 0h56v194H0z"/></clipPath></defs></svg>