<svg xmlns="http://www.w3.org/2000/svg" width="220" height="85" fill="none"><g filter="url(#a)"><rect width="200" height="57" x="10" y="14" fill="#B57556" rx="28.5"/><path fill="#fff" d="M73.802 50.252c2.61 0 3.996-1.404 3.996-3.186 0-1.854-1.458-2.538-2.79-3.042-1.08-.378-1.998-.666-1.998-1.386 0-.594.414-.99 1.332-.99.738 0 1.458.36 2.16.864l1.206-1.584c-.828-.648-1.98-1.242-3.438-1.242-2.304 0-3.744 1.278-3.744 3.06 0 1.71 1.422 2.466 2.7 2.97 1.044.396 2.106.756 2.106 1.494 0 .63-.468 1.08-1.476 1.08-.936 0-1.782-.414-2.7-1.116l-1.188 1.674c.99.828 2.484 1.404 3.834 1.404Zm12.638 0c1.368 0 2.322-.666 3.204-1.692h.054l.198 1.44h2.16V39.938h-2.628v6.786c-.684.9-1.224 1.26-2.052 1.26-.99 0-1.422-.54-1.422-2.088v-5.958h-2.646v6.282c0 2.538.954 4.032 3.132 4.032Zm17.095 0c2.214 0 4.284-1.98 4.284-5.454 0-3.096-1.494-5.112-3.96-5.112-1.008 0-1.998.486-2.808 1.188l.09-1.602v-3.618h-2.646V50h2.07l.216-1.062h.072c.81.846 1.782 1.314 2.682 1.314Zm-.576-2.178c-.54 0-1.206-.18-1.818-.738V42.89c.666-.702 1.296-1.044 1.962-1.044 1.404 0 1.998 1.062 1.998 3.006 0 2.178-.936 3.222-2.142 3.222ZM113.679 50h2.646v-6.93c.684-.756 1.35-1.116 1.908-1.116.972 0 1.422.522 1.422 2.106V50h2.646v-6.93c.72-.756 1.35-1.116 1.926-1.116.972 0 1.404.522 1.404 2.106V50h2.646v-6.282c0-2.52-.972-4.032-3.114-4.032-1.314 0-2.286.792-3.222 1.746-.468-1.116-1.314-1.746-2.772-1.746-1.296 0-2.232.72-3.078 1.584h-.054l-.216-1.332h-2.142V50Zm20.95 0h2.646V39.938h-2.646V50Zm1.314-11.7c.918 0 1.548-.576 1.548-1.458 0-.864-.63-1.422-1.548-1.422s-1.53.558-1.53 1.422c0 .882.612 1.458 1.53 1.458Zm11.424 11.952c.9 0 1.602-.198 2.142-.378l-.432-1.926c-.288.108-.666.234-1.008.234-.882 0-1.368-.54-1.368-1.692v-4.482h2.502v-2.07h-2.502v-2.736h-2.196l-.288 2.736-1.566.108v1.962h1.404v4.482c0 2.25.918 3.762 3.312 3.762Z"/></g><defs><filter id="a" width="220" height="85" x="0" y="0" color-interpolation-filters="sRGB" filterUnits="userSpaceOnUse"><feFlood flood-opacity="0" result="BackgroundImageFix"/><feColorMatrix in="SourceAlpha" result="hardAlpha" values="0 0 0 0 0 0 0 0 0 0 0 0 0 0 0 0 0 0 127 0"/><feOffset dy="-4"/><feGaussianBlur stdDeviation="5"/><feComposite in2="hardAlpha" operator="out"/><feColorMatrix values="0 0 0 0 1 0 0 0 0 1 0 0 0 0 1 0 0 0 0.9 0"/><feBlend in2="BackgroundImageFix" result="effect1_dropShadow_2403_2991"/><feColorMatrix in="SourceAlpha" result="hardAlpha" values="0 0 0 0 0 0 0 0 0 0 0 0 0 0 0 0 0 0 127 0"/><feOffset dy="4"/><feGaussianBlur stdDeviation="5"/><feComposite in2="hardAlpha" operator="out"/><feColorMatrix values="0 0 0 0 0.158333 0 0 0 0 0.137882 0 0 0 0 0.137882 0 0 0 0.35 0"/><feBlend in2="effect1_dropShadow_2403_2991" result="effect2_dropShadow_2403_2991"/><feBlend in="SourceGraphic" in2="effect2_dropShadow_2403_2991" result="shape"/></filter></defs></svg>