<svg xmlns="http://www.w3.org/2000/svg" width="66" height="78" fill="none"><path fill="#B3B960" d="m12.377 69.648 15.02-29.945c.478-.909 1.722-1.005 2.296-.191l3.923 5.31c.239.334.67.573 1.1.573h6.601a1.377 1.377 0 0 1 1.244 1.962L27.493 77.254a1.39 1.39 0 0 1-2.344.192l-3.827-5.406c-.24-.383-.67-.574-1.148-.574l-6.601.144c-1.005.047-1.675-1.053-1.196-1.962Z"/><path fill="#B3B960" d="M53.861 69.648 38.793 39.703c-.478-.909-1.722-1.005-2.296-.191l-3.923 5.31c-.239.334-.67.573-1.1.573h-6.601a1.377 1.377 0 0 0-1.244 1.962l15.068 29.897a1.39 1.39 0 0 0 2.344.192l3.827-5.406c.24-.383.67-.574 1.148-.574l6.602.144c1.004.047 1.674-1.053 1.243-1.962Z"/><path fill="#D2DA71" d="M32.672 65.344c18.044 0 32.672-14.628 32.672-32.672C65.344 14.628 50.716 0 32.672 0 14.628 0 0 14.628 0 32.672c0 18.044 14.628 32.672 32.672 32.672Z"/><path fill="#B3B960" d="M32.672 59.508c14.821 0 26.836-12.015 26.836-26.836 0-14.821-12.015-26.836-26.836-26.836-14.821 0-26.836 12.015-26.836 26.836 0 14.821 12.015 26.836 26.836 26.836Z"/><path fill="#fff" d="M30.663 63.098h-.239a.97.97 0 0 1-.91-1.052c.049-.574.527-1.005 1.053-.91h.192a.97.97 0 0 1 .908 1.053.994.994 0 0 1-1.004.91Zm7.845-.478c-.478 0-.909-.335-1.005-.813a1.057 1.057 0 0 1 .766-1.196l.191-.048a1.057 1.057 0 0 1 1.196.765 1.057 1.057 0 0 1-.765 1.196l-.192.048c-.095.048-.143.048-.191.048Zm-15.69-1.1c-.096 0-.24 0-.335-.048l-.192-.048c-.526-.191-.813-.766-.621-1.292.191-.526.765-.813 1.291-.622l.192.048c.526.192.813.766.621 1.292-.19.383-.574.67-.956.67Zm23.248-1.58a.984.984 0 0 1-.909-.573c-.239-.478-.048-1.1.43-1.34l.144-.095c.478-.24 1.1-.048 1.34.43.239.479.047 1.1-.43 1.34l-.192.095c-.048.144-.24.144-.383.144Zm-30.424-2.152a.92.92 0 0 1-.574-.191l-.143-.096c-.43-.334-.574-.956-.24-1.387.335-.43.957-.574 1.388-.24l.143.097c.43.334.574.956.24 1.387a.94.94 0 0 1-.814.43Zm37.025-2.44a.86.86 0 0 1-.717-.334 1.04 1.04 0 0 1 .048-1.435l.143-.144c.383-.382 1.053-.335 1.435.048.383.383.335 1.053-.047 1.435l-.144.144c-.24.191-.478.287-.718.287ZM9.758 52.336a.999.999 0 0 1-.765-.383l-.143-.143a1.048 1.048 0 0 1 .143-1.435 1.048 1.048 0 0 1 1.435.143l.096.144c.335.43.287 1.052-.144 1.435a.91.91 0 0 1-.622.239Zm48.028-3.157a.964.964 0 0 1-.526-.144 1.008 1.008 0 0 1-.335-1.387l.096-.143a1.008 1.008 0 1 1 1.722 1.052l-.096.191c-.191.24-.526.43-.861.43Zm-52.19-3.683a.981.981 0 0 1-.908-.622l-.048-.144c-.24-.526 0-1.148.526-1.34.526-.239 1.1 0 1.292.479l.095.191c.24.527 0 1.1-.526 1.34-.143.048-.287.096-.43.096ZM61.04 41.81c-.096 0-.192 0-.24-.048-.526-.143-.86-.67-.717-1.196l.048-.191c.143-.526.717-.861 1.244-.718.526.144.86.718.717 1.244l-.048.144c-.143.43-.574.765-1.004.765ZM3.396 37.745c-.478 0-.909-.383-1.004-.861l-.048-.191c-.048-.527.335-1.053.86-1.148.527-.096 1.053.334 1.149.86l.048.192c.096.526-.287 1.052-.861 1.148h-.144Zm58.79-3.875s-.047 0 0 0a.98.98 0 0 1-1.004-1.004V32.579a.98.98 0 0 1 1.005-1.005.98.98 0 0 1 1.004 1.005V32.914c-.047.526-.478.956-1.004.956ZM3.397 29.71h-.143c-.526-.096-.957-.575-.861-1.148l.048-.192a1.06 1.06 0 0 1 1.148-.86c.526.095.909.573.86 1.147l-.047.192c-.096.478-.526.86-1.005.86Zm57.69-3.923c-.43 0-.86-.287-.956-.718l-.048-.19c-.144-.527.143-1.101.67-1.245.526-.143 1.1.144 1.243.67l.048.191a.998.998 0 0 1-.717 1.244c-.048.048-.144.048-.24.048ZM5.55 21.959a.902.902 0 0 1-.383-.096c-.526-.239-.765-.813-.526-1.339l.096-.191c.239-.526.813-.718 1.34-.526.525.239.717.813.525 1.339l-.095.191c-.192.43-.574.622-.957.622Zm52.38-3.54c-.335 0-.67-.191-.86-.478l-.096-.144a1.008 1.008 0 1 1 1.722-1.052l.095.191c.287.479.144 1.1-.334 1.388-.192.047-.383.095-.527.095Zm-48.218-3.3c-.24 0-.43-.096-.622-.24-.43-.335-.479-1.004-.144-1.435l.144-.143c.335-.43 1.004-.479 1.435-.144.43.335.478 1.005.143 1.435l-.095.144c-.287.24-.574.383-.861.383Zm43.148-2.966c-.24 0-.479-.096-.718-.287l-.143-.144c-.43-.383-.43-1.004-.048-1.435.383-.43 1.004-.43 1.435-.048l.144.144a1.04 1.04 0 0 1 .047 1.435.86.86 0 0 1-.717.335ZM15.547 9.617a.94.94 0 0 1-.814-.43c-.334-.43-.239-1.1.24-1.387l.19-.144a.987.987 0 0 1 1.388.24.987.987 0 0 1-.239 1.387l-.143.095c-.192.144-.383.24-.622.24Zm30.758-2.104a1.7 1.7 0 0 1-.478-.096l-.144-.096c-.478-.239-.67-.86-.43-1.34.239-.477.86-.669 1.34-.43l.19.096c.479.24.67.861.431 1.34a1.026 1.026 0 0 1-.909.526Zm-23.63-1.627c-.431 0-.814-.239-.957-.67-.192-.526.095-1.1.621-1.291l.192-.048c.526-.191 1.1.096 1.291.622.192.526-.095 1.1-.622 1.292l-.19.047c-.097 0-.24.048-.336.048Zm16.072-1.1h-.191l-.192-.048a.971.971 0 0 1-.765-1.196.971.971 0 0 1 1.196-.765l.191.048c.527.095.91.67.766 1.196-.096.43-.527.765-1.005.765Zm-8.228-.574c-.526 0-.956-.383-1.004-.957-.048-.574.382-1.052.909-1.052h.191c.526-.048 1.052.383 1.052.957a.955.955 0 0 1-.956 1.052h-.192c.048 0 .048 0 0 0Z" opacity=".5"/></svg>