<svg xmlns="http://www.w3.org/2000/svg" width="65" height="65" fill="none"><path fill="#C4D4DF" d="M32.5 65C50.45 65 65 50.45 65 32.5S50.45 0 32.5 0 0 14.55 0 32.5 14.55 65 32.5 65Z"/><path fill="#A0BCC8" d="M32.5 59.194c14.742 0 26.694-11.952 26.694-26.695S47.242 5.805 32.5 5.805 5.805 17.756 5.805 32.499c0 14.743 11.951 26.695 26.694 26.695Z"/><path fill="#fff" d="M30.502 62.766h-.238a.964.964 0 0 1-.904-1.047c.047-.571.523-1 1.047-.904h.19a.964.964 0 0 1 .904 1.047.988.988 0 0 1-.999.904Zm7.804-.476c-.476 0-.904-.333-1-.809a1.052 1.052 0 0 1 .762-1.19l.19-.047a1.052 1.052 0 0 1 1.19.761 1.052 1.052 0 0 1-.761 1.19l-.19.047c-.096.048-.144.048-.191.048Zm-15.608-1.094c-.095 0-.238 0-.333-.048l-.19-.048c-.524-.19-.81-.761-.619-1.284.19-.524.761-.81 1.285-.619l.19.047c.524.19.81.762.619 1.285-.19.381-.571.666-.952.666Zm23.126-1.57a.979.979 0 0 1-.904-.572c-.238-.476-.048-1.094.428-1.332l.143-.095c.476-.238 1.094-.048 1.332.428s.048 1.094-.428 1.332l-.19.096c-.048.142-.238.142-.38.142ZM15.56 57.483a.915.915 0 0 1-.57-.19l-.143-.096c-.428-.333-.571-.951-.238-1.38.333-.428.951-.57 1.38-.237l.143.095c.428.333.57.951.237 1.38a.935.935 0 0 1-.809.428Zm36.83-2.427a.856.856 0 0 1-.713-.333 1.035 1.035 0 0 1 .047-1.427l.143-.143c.381-.38 1.047-.333 1.428.047.38.381.333 1.047-.048 1.428l-.142.143c-.238.19-.476.285-.714.285ZM9.709 52.06a.993.993 0 0 1-.762-.38l-.142-.143a1.043 1.043 0 0 1 .142-1.428 1.043 1.043 0 0 1 1.428.143l.095.143a1.043 1.043 0 0 1-.143 1.427.904.904 0 0 1-.618.238Zm47.774-3.14a.959.959 0 0 1-.523-.143 1.003 1.003 0 0 1-.333-1.38l.095-.143a1.003 1.003 0 1 1 1.713 1.047l-.095.19c-.19.238-.524.429-.857.429ZM5.568 45.255a.976.976 0 0 1-.904-.619l-.048-.143c-.238-.523 0-1.142.524-1.332.523-.238 1.094 0 1.284.476l.096.19c.237.524 0 1.095-.524 1.333-.143.047-.285.095-.428.095Zm55.15-3.664c-.095 0-.19 0-.238-.048-.523-.142-.856-.666-.714-1.19l.048-.19c.143-.523.714-.856 1.237-.713.523.142.856.713.714 1.237l-.048.143c-.142.428-.57.76-1 .76ZM3.379 37.546c-.476 0-.904-.38-1-.856l-.047-.19c-.047-.524.333-1.047.857-1.143.523-.095 1.047.333 1.142.857l.047.19c.095.524-.285 1.047-.856 1.142h-.143Zm58.481-3.854s-.048 0 0 0c-.571 0-1-.428-1-1V32.408c0-.57.429-1 1-1s1 .43 1 1V32.74c-.048.524-.477.952-1 .952Zm-58.481-4.14h-.143c-.523-.095-.951-.571-.856-1.142l.047-.19a1.054 1.054 0 0 1 1.142-.857c.524.095.904.571.857 1.142l-.048.19c-.095.476-.523.857-.999.857Zm57.387-3.902c-.429 0-.857-.285-.952-.714l-.048-.19c-.142-.523.143-1.094.666-1.237.524-.143 1.095.143 1.238.666l.047.19a.992.992 0 0 1-.714 1.238c-.047.047-.142.047-.237.047ZM5.52 21.843a.896.896 0 0 1-.38-.095c-.524-.238-.762-.809-.524-1.332l.095-.19c.238-.524.81-.714 1.333-.524.523.238.713.809.523 1.332l-.095.19c-.19.429-.571.62-.952.62Zm52.105-3.52c-.333 0-.666-.191-.856-.477l-.096-.142a1.003 1.003 0 1 1 1.713-1.047l.095.19a1.003 1.003 0 0 1-.333 1.38c-.19.048-.38.095-.523.095ZM9.66 15.038c-.238 0-.428-.095-.618-.238-.429-.333-.476-1-.143-1.428l.143-.142c.333-.429.999-.476 1.427-.143.428.333.476 1 .143 1.427l-.095.143c-.286.238-.571.38-.857.38Zm42.921-2.95c-.238 0-.476-.096-.714-.286l-.142-.143c-.429-.38-.429-.999-.048-1.427.38-.428 1-.428 1.428-.048l.142.143c.38.38.428 1 .048 1.428a.856.856 0 0 1-.714.333ZM15.465 9.567a.935.935 0 0 1-.809-.429c-.333-.428-.238-1.094.238-1.38l.19-.142a.981.981 0 0 1 1.38.238.981.981 0 0 1-.237 1.38l-.143.095c-.19.142-.38.238-.619.238Zm30.597-2.094a1.69 1.69 0 0 1-.476-.095l-.143-.095c-.475-.238-.666-.857-.428-1.333.238-.476.857-.666 1.332-.428l.19.095c.477.238.667.857.43 1.333a1.02 1.02 0 0 1-.905.523ZM22.555 5.855c-.428 0-.808-.238-.951-.666-.19-.524.095-1.095.618-1.285l.19-.047c.524-.19 1.095.095 1.285.618.19.524-.095 1.095-.618 1.285l-.19.048c-.096 0-.238.047-.334.047Zm15.989-1.094h-.19l-.191-.048a.966.966 0 0 1-.761-1.19.966.966 0 0 1 1.19-.76l.19.047c.523.095.904.666.761 1.19-.095.428-.523.76-1 .76Zm-8.185-.571c-.523 0-.952-.381-.999-.952-.048-.571.38-1.047.904-1.047h.19c.524-.047 1.047.38 1.047.952a.95.95 0 0 1-.951 1.047h-.19c.047 0 .047 0 0 0Z" opacity=".5"/></svg>