<svg xmlns="http://www.w3.org/2000/svg" width="240" height="97" fill="none"><g filter="url(#a)"><rect width="200" height="57" x="20" y="20" fill="#B57556" rx="28.5"/><path fill="#fff" d="M83.45 56h2.646v-5.382h5.058v-2.25h-5.058V44.84h6.57v-2.214H83.45V56Zm25.65.216c4.014 0 6.588-2.61 6.588-6.966 0-4.32-2.7-6.84-6.588-6.84-3.906 0-6.624 2.52-6.624 6.84 0 4.356 2.754 6.966 6.624 6.966Zm0-2.286c-2.34 0-3.888-1.8-3.888-4.68 0-2.844 1.512-4.554 3.888-4.554 2.358 0 3.87 1.71 3.87 4.554 0 2.88-1.53 4.68-3.87 4.68ZM125.786 56h2.52v-5.022h2.448L133.976 56h3.006l-3.654-5.49c1.782-.558 2.97-1.854 2.97-3.816 0-3.078-2.394-4.068-5.598-4.068h-4.914V56Zm2.52-7.128V44.75h2.16c2.07 0 3.204.468 3.204 1.944 0 1.44-1.116 2.178-3.204 2.178h-2.16ZM145.586 56h2.394v-5.562c0-1.278-.18-3.15-.306-4.428h.072l1.278 3.186 2.466 5.616h1.53l2.466-5.616 1.296-3.186h.09c-.144 1.278-.324 3.15-.324 4.428V56h2.43V42.626h-2.952l-2.664 6.3c-.324.828-.648 1.692-1.008 2.556h-.072c-.324-.864-.684-1.728-1.008-2.556l-2.736-6.3h-2.952V56Z"/></g><defs><filter id="a" width="240" height="97" x="0" y="0" color-interpolation-filters="sRGB" filterUnits="userSpaceOnUse"><feFlood flood-opacity="0" result="BackgroundImageFix"/><feColorMatrix in="SourceAlpha" result="hardAlpha" values="0 0 0 0 0 0 0 0 0 0 0 0 0 0 0 0 0 0 127 0"/><feOffset/><feGaussianBlur stdDeviation="10"/><feComposite in2="hardAlpha" operator="out"/><feColorMatrix values="0 0 0 0 0.979167 0 0 0 0 0.640538 0 0 0 0 0.640538 0 0 0 0.91 0"/><feBlend in2="BackgroundImageFix" mode="lighten" result="effect1_dropShadow_2403_2958"/><feBlend in="SourceGraphic" in2="effect1_dropShadow_2403_2958" result="shape"/></filter></defs></svg>