<svg xmlns="http://www.w3.org/2000/svg" width="376" height="493" fill="none"><g clip-path="url(#a)"><path fill="#D3D4DB" d="M333.323 493H41.741C28.075 493 17 480.405 17 464.865V29.135C17 13.595 28.075 1 41.741 1H333.26C346.924 1 358 13.595 358 29.135v435.73c.064 15.54-11.011 28.135-24.677 28.135Z"/><path fill="#F7F7F8" stroke="#F7F7F8" stroke-miterlimit="10" stroke-width="4.124" d="M348 23H28v432h320V23Z"/><path fill="#5D82AF" d="M209.041 17.864h-42.406a2.018 2.018 0 0 1-2.01-2.006c0-1.1.908-2.006 2.01-2.006h42.406c1.102 0 2.01.906 2.01 2.006.065 1.1-.843 2.006-2.01 2.006Z"/><path fill="#C2C3C9" stroke="#EDEEF0" stroke-miterlimit="10" stroke-width=".877" d="M187.848 483.891a7.5 7.5 0 1 0 0-15 7.5 7.5 0 0 0 0 15Z"/><path fill="#B57556" d="M356.883 15.79A24.729 24.729 0 0 0 333.799 0H41.952a24.661 24.661 0 0 0-23.083 15.79L0 51.839h375.816l-18.933-36.047Z"/><path fill="#EDEEF0" d="M35.992 51.838h41.433L96.488 0H59.205L35.992 51.838ZM169.696 0H131.31l-11.412 51.838h43.573L169.696 0ZM316.943 0H279.66l18.998 51.838h41.498L316.943 0ZM244.843 0h-38.386l6.225 51.838h43.573L244.843 0Z"/><path fill="#D4D5D9" d="M142.001 76.371h-.648c-11.866 0-21.462-9.578-21.462-21.42v-3.107h43.572v3.106c0 11.843-9.596 21.421-21.462 21.421Z"/><path fill="#AF7F6B" d="M99.144 76.371h-.973c-11.477 0-20.75-9.254-20.75-20.709v-3.818h42.471v3.818c0 11.455-9.272 20.71-20.748 20.71Z"/><path fill="#D4D5D9" d="M56.67 76.371c-11.476 0-20.748-9.254-20.748-20.709v-3.818h41.433v3.818c.065 11.455-9.207 20.71-20.684 20.71Z"/><path fill="#AF7F6B" d="M17.96 76.371C8.04 76.371 0 68.347 0 58.445v-6.601h35.986v6.536c0 9.967-8.04 17.991-18.025 17.991Z"/><path fill="#D4D5D9" d="M234.466 76.371c12.06 0 21.787-9.707 21.787-21.744v-2.783H212.68v2.783c0 12.037 9.726 21.744 21.786 21.744Z"/><path fill="#AF7F6B" d="M277.453 76.371c11.736 0 21.203-9.448 21.203-21.162v-3.365H256.25v3.365c0 11.714 9.467 21.162 21.203 21.162Z"/><path fill="#D4D5D9" d="M319.211 76.371h.389c11.347 0 20.554-9.19 20.554-20.515v-4.012h-41.498v4.012c0 11.326 9.208 20.515 20.555 20.515Z"/><path fill="#AF7F6B" d="M357.984 76.371c9.855 0 17.831-7.96 17.831-17.797v-6.73h-35.663v6.73c0 9.837 7.976 17.797 17.832 17.797ZM188.039 76.371c-13.616 0-24.574-11.001-24.574-24.527h49.214c0 13.526-11.023 24.527-24.64 24.527Z"/><path fill="#9A999E" d="M174.214 444.654a2.327 2.327 0 1 0 0-4.654 2.327 2.327 0 0 0 0 4.654Z"/><path fill="#9A999E" d="M187.636 444.654a2.327 2.327 0 1 0 0-4.654 2.327 2.327 0 0 0 0 4.654Z" opacity=".55"/><path fill="#9A999E" d="M201.054 444.654a2.327 2.327 0 1 0 0-4.654 2.327 2.327 0 0 0 0 4.654Z" opacity=".35"/><path fill="#DFC960" d="m115.495 191.377 1.758 3.585a.575.575 0 0 0 .535.381l3.974.61c.611.077.841.84.382 1.221l-2.904 2.822a.864.864 0 0 0-.229.61l.688 3.967c.076.61-.535 1.067-1.07.762l-3.592-1.83a1.053 1.053 0 0 0-.688 0l-3.592 1.83c-.535.305-1.146-.152-1.069-.762l.687-3.967c.077-.229 0-.457-.229-.61l-2.904-2.822c-.458-.381-.229-1.144.382-1.221l3.974-.61a.574.574 0 0 0 .535-.381l1.758-3.585c.611-.534 1.375-.534 1.604 0ZM115.495 148.674l1.758 3.585a.575.575 0 0 0 .535.381l3.974.61c.611.077.841.839.382 1.221l-2.904 2.822a.863.863 0 0 0-.229.61l.688 3.966c.076.611-.535 1.068-1.07.763l-3.592-1.83a1.053 1.053 0 0 0-.688 0l-3.592 1.83c-.535.305-1.146-.152-1.069-.763l.687-3.966c.077-.229 0-.458-.229-.61l-2.904-2.822c-.458-.382-.229-1.144.382-1.221l3.974-.61a.574.574 0 0 0 .535-.381l1.758-3.585c.611-.534 1.375-.534 1.604 0Z"/><path fill="#BED3E5" d="M138.249 309.345c22.229 0 40.249-17.986 40.249-40.173 0-22.186-18.02-40.172-40.249-40.172C116.02 229 98 246.986 98 269.172c0 22.187 18.02 40.173 40.249 40.173Z"/><path fill="#002A50" d="m165.989 280.946-10.086-8.054-2.663-2.094c.726-1.208 1.049-2.577 1.049-4.027a8.12 8.12 0 0 0-8.15-8.134 8.12 8.12 0 0 0-8.149 8.134c0 .242 0 .564.08.805h-6.616c-.162 0-.242.081-.404.161l-13.556 12.725c-.242.242-.242.564 0 .806a.62.62 0 0 0 .404.161c.161 0 .242-.081.403-.161l.242-.242v7.409a.55.55 0 0 0 .565.564h45.429a.55.55 0 0 0 .565-.564v-6.845l.242.161c.081.08.242.161.323.161a.444.444 0 0 0 .403-.242c.242-.161.161-.483-.081-.724Zm-9.844-3.141 3.47 2.738h-3.47v-2.738Zm-17.026-10.953c0-3.866 3.147-7.007 7.02-7.007 3.874 0 7.02 3.141 7.02 7.007 0 1.127-.322 2.335-.806 3.302l-3.067-2.417c-.08 0-.08-.08-.161-.08H139.2c-.081-.322-.081-.564-.081-.805Zm-.645 13.047-7.585-5.96h1.533l8.069 5.96h-2.017Zm-4.761-.564-.404-.322-5.89-5.074h1.614l7.585 5.96h-2.34l-.565-.564Zm6.859-10.551-4.761 4.027h-1.614l4.761-4.027h1.614Zm-2.098 8.215-1.856-1.369v-1.611h1.856v2.98Zm-3.067-2.255-1.129-.805h1.129v.805Zm2.098-1.933 4.6-3.866.161-.161h1.372l-4.761 4.027h-1.372Zm2.098 4.994v-3.866h2.098v5.396l-2.098-1.53Zm2.421-4.994h-1.533l4.599-3.866.162-.161h2.017l-5.245 4.027Zm-9.602 0h-1.614l4.599-3.866.162-.161h1.694l-4.841 4.027Zm-.726-4.027h2.098l-4.761 4.027h-1.695l4.358-4.027Zm-5.487 14.739c-.565 0-1.049.483-1.049 1.047v3.302h-5.487v-7.893l6.294-5.879 6.778 5.96v7.892h-5.487v-3.302c.08-.644-.404-1.127-1.049-1.127Zm7.665-2.497h7.827v6.846h-7.827v-6.846Zm15.09-.08c-.888 0-1.695.724-1.695 1.691v5.315h-4.438v-14.255l6.133-4.752 6.132 4.752v14.336h-4.438v-5.316c-.081-1.047-.807-1.771-1.694-1.771Zm15.008 7.006h-7.827v-6.282h7.827v6.282Zm-2.501-7.409c-.081 0-.081 0 0 0l-5.326-4.188v-1.852l7.585 6.04h-2.259Z"/><path fill="#002A50" d="M162.277 284.326a.723.723 0 0 0-.727-.724.722.722 0 0 0-.726.724v1.45h1.533v-1.45h-.08ZM159.374 284.326a.722.722 0 0 0-.726-.724.722.722 0 0 0-.726.724v1.45h1.533v-1.45h-.081ZM139.199 283.52a.722.722 0 0 0-.726.724v1.45h1.533v-1.45c0-.402-.323-.724-.807-.724ZM148.965 275.789a.723.723 0 0 0-.727.725v1.45h1.533v-1.45c-.08-.403-.403-.725-.806-.725ZM146.464 275.789a.723.723 0 0 0-.726.725v1.45h1.533v-1.45c-.08-.403-.403-.725-.807-.725ZM152.117 276.592a.723.723 0 0 0-.727-.725.723.723 0 0 0-.726.725v1.45h1.533v-1.45h-.08ZM136.375 283.52a.723.723 0 0 0-.727.724v1.45h1.534v-1.45c-.081-.402-.404-.724-.807-.724ZM130.234 284.326a.723.723 0 0 0-.727-.724.722.722 0 0 0-.726.724v1.45h1.533v-1.45h-.08ZM122.66 283.52a.722.722 0 0 0-.726.724v1.45h1.533v-1.45c-.081-.402-.404-.724-.807-.724ZM136.467 257.023c-.081-.08-4.922-5.879-11.781-2.577 1.372-1.53 3.308-1.127 3.47-1.127.242.08.564-.161.645-.403.081-.242-.161-.564-.403-.644-.646-.161-1.533-.081-2.421.161 1.856-1.611 4.034-1.369 4.115-1.369a.44.44 0 0 0 .565-.403.439.439 0 0 0-.403-.564s-1.776-.241-3.632.725c2.34-1.772 5.165-1.772 5.326-1.772.323 0 .565-.241.565-.483 0-.322-.242-.564-.484-.564-2.744-.08-7.666 1.289-9.038 6.765-1.371-5.476-6.294-6.845-9.037-6.765-.323 0-.484.242-.484.564 0 .322.242.483.565.483.161 0 3.066 0 5.325 1.772-1.856-.966-3.631-.725-3.631-.644-.323.08-.484.322-.403.564.08.322.322.483.565.402.161 0 2.259-.322 4.195 1.369-.887-.322-1.855-.322-2.42-.161-.242.081-.484.322-.404.645.081.241.323.483.646.402.081 0 2.421-.402 3.792 1.611-7.262-4.268-12.507 2.013-12.588 2.094-.161.242-.161.564.081.725.081.08.242.08.323.08.161 0 .323-.08.403-.161.162-.161 2.34-2.818 5.81-3.141-2.421.725-3.631 2.578-3.631 2.658a.524.524 0 0 0 .161.725c.081.08.162.08.243.08.161 0 .322-.08.403-.241.081-.161 1.452-2.255 4.357-2.416-1.049.483-1.694 1.288-2.098 1.933a.524.524 0 0 0 .162.724c.08.081.161.081.242.081.161 0 .323-.081.484-.242.081-.161 1.775-2.979 5.406-1.53-7.181 1.289-6.939 8.296-6.859 8.376 0 .242.243.483.485.483.322 0 .484-.241.484-.563 0-.162-.081-2.336 1.21-4.349-.565 1.53-.323 2.818-.323 2.818.081.242.242.403.485.403h.08c.242-.081.484-.322.404-.564 0-.08-.323-1.852.968-3.463-.161.725-.161 1.45-.081 1.933.081.242.242.403.484.403h.081c.242-.081.484-.322.404-.645 0-.08-.565-2.818 2.501-3.865h.081c-.081.644-.242 1.288-.242 1.933 0 .241 0 .402.161.563 0 0 .161.161.403.161v16.269c0 .322.243.483.485.483s.484-.242.484-.483v-16.269c.161-.08.323-.161.403-.161.162-.161.162-.402.162-.563 0-.564-.081-1.047-.162-1.611.081-.081.162-.242.162-.322v-.081h.242c.08 0 .161.081.242.081 3.066 1.047 2.501 3.704 2.501 3.865-.081.242.081.564.404.645h.08c.242 0 .484-.161.484-.403.081-.483.162-1.208-.08-1.933 1.291 1.611.968 3.383.968 3.463-.081.242.161.564.403.564h.081c.242 0 .484-.161.484-.403 0 0 .242-1.288-.322-2.818 1.291 1.932 1.21 4.187 1.21 4.349 0 .322.242.563.484.563s.484-.241.484-.483c0-.08.242-7.329-7.262-8.376 3.55-1.288 5.164 1.53 5.245 1.611.081.161.242.242.484.242.081 0 .161 0 .242-.081a.525.525 0 0 0 .162-.725c-.323-.644-1.049-1.449-2.098-1.933 2.904.242 4.276 2.336 4.357 2.416a.444.444 0 0 0 .403.242c.081 0 .162 0 .242-.081a.524.524 0 0 0 .162-.724s-1.211-1.853-3.631-2.658c3.469.403 5.729 2.98 5.809 3.141.081.161.243.161.404.161.081 0 .242 0 .323-.081.403-.402.403-.724.242-.886Z"/><path fill="#BED3E5" d="M238.749 309.345c22.229 0 40.249-17.986 40.249-40.173 0-22.186-18.02-40.172-40.249-40.172-22.229 0-40.249 17.986-40.249 40.172 0 22.187 18.02 40.173 40.249 40.173Z"/><path fill="#002A50" d="M262.939 273.53c-.339-.592-.847-1.184-1.271-1.776.339-.931.085-1.946-.593-2.791a1.017 1.017 0 0 0-.424-.423 2.852 2.852 0 0 0-1.44-.93c-.509-.17-1.102-.17-1.695 0l-.932.338a14.27 14.27 0 0 0-1.101-.508c.423-.422.932-1.184.932-2.029.084-.677-.17-1.269-.678-1.861-.678-.677-1.61-1.099-2.542-1.099l-10.677.422c-1.101 0-2.288.677-2.288 2.03 0 1.692 1.102 2.876 2.034 3.045.932 1.268 1.44 2.875 1.44 4.651 0 .931-.084 1.861-.339 2.791-.084.423-.508.677-.932.677h-10.337c-.424-.169-2.203-2.284-3.474-4.483-.085-.169-.17-1.099 1.779-6.004 1.61-4.229 2.373-7.781 2.203-9.98l1.441-1.184c.169.338.423.592.762.761.085 0 .17.085.339.085a.77.77 0 0 0 .593-.254c.594-.507.848-1.691.593-2.706-.169-.677-.508-1.184-.932-1.269-.339-.084-.677 0-.932.169-.593.423-.847 1.438-.678 2.453l-1.355 1.099v-.084c-.509-1.692-2.034-3.383-4.407-3.383-.338 0-.593 0-.932.084-1.016.17-2.118 1.777-2.118 3.891 0 2.03.763 3.636 1.864 3.806h.17s.762 0 1.101-.085c.339-.085.763-.169 1.102-.254-1.102 2.453-4.152 9.473-5.339 12.602-.084.169-.084.253-.084.423-1.78-.339-3.559-.17-5.169.592-1.61.676-3.051 1.86-3.983 3.298-.169.254-.169.592-.084.846.084.253.339.507.593.507l1.779.423c-1.101 1.607-1.271 3.637-.678 5.413.678 1.776 2.119 3.214 3.983 3.806 1.864.592 3.898.169 5.423-.931 1.525-1.184 2.457-2.96 2.457-4.905v-.507l1.695.422c.254.085.593 0 .763-.169.254-.169.338-.423.338-.676h17.795a6.347 6.347 0 0 0 1.356 4.905 6.186 6.186 0 0 0 4.66 2.114 6.186 6.186 0 0 0 4.66-2.114c1.187-1.353 1.695-3.214 1.356-4.905h2.457c.339 0 .594-.17.848-.339.254-.253.339-.507.339-.845.084-1.692-.509-3.552-1.441-5.159Zm-27.962-21.567s.084-.084.169-.084c.17.084.339.254.424.761.169.761 0 1.607-.339 1.861a.265.265 0 0 1-.17.084c-.169-.084-.338-.253-.423-.761-.17-.761 0-1.607.339-1.861Zm22.793 16.408c.424-.085.848-.085 1.187 0 .423.084.762.338 1.016.676.17.169.255.339.424.423.424.508.593 1.015.593 1.607-1.016-1.015-2.203-1.861-3.474-2.537l.254-.169Zm-16.692-3.383c0-1.015.932-1.269 1.44-1.269l10.677-.423c.762 0 1.44.254 1.949.846.339.423.508.846.508 1.269-.085.845-.763 1.522-1.017 1.776h-12.117c-.508.084-1.44-.761-1.44-2.199Zm-15.253-9.557c0-1.353.594-2.453 1.102-2.876.169 1.946.169 3.891-.085 5.836-.593-.423-1.017-1.522-1.017-2.96Zm1.526 25.626c0 1.691-.848 3.298-2.203 4.313-1.356 1.015-3.136 1.269-4.83.761-1.61-.507-2.881-1.776-3.39-3.467-.508-1.607-.254-3.383.763-4.737l3.22.846c-.678.254-1.187.846-1.441 1.523a2.423 2.423 0 0 0 .17 2.029c.339.592.932 1.1 1.61 1.269.678.169 1.44.084 2.033-.338.593-.423 1.017-1.015 1.102-1.692a2.935 2.935 0 0 0-.509-2.03l3.22.846c.255.169.255.423.255.677Zm-3.559 0c0 .507-.17.93-.509 1.268-.339.339-.762.508-1.271.508-.508 0-.932-.169-1.271-.508-.339-.338-.508-.761-.508-1.268 0-.508.169-.931.508-1.269.339-.338.763-.507 1.271-.507.509 0 .932.169 1.271.507.339.338.509.846.509 1.269Zm6.355-.846h-.085l-2.288-.592-10.083-2.537-2.373-.592s-.084 0-.084-.085v-.084c.932-1.354 2.203-2.453 3.728-3.13 1.525-.592 3.22-.761 4.83-.338.084.169.169.254.254.338 1.695 1.776 3.389 4.398 4.237 5.751.423.592 1.017 1.015 1.779 1.1.085.084.085.084.085.169.085-.085 0-.085 0 0Zm29.996.846c0 1.522-.593 2.96-1.779 3.89-1.102 1.015-2.627 1.522-4.068 1.353-1.525-.169-2.881-.93-3.728-2.114-.932-1.184-1.271-2.706-1.017-4.144h2.881a2.38 2.38 0 0 0 .254 2.368c.509.676 1.271 1.099 2.119 1.099.847 0 1.61-.423 2.118-1.099a2.38 2.38 0 0 0 .254-2.368h2.881c0 .423.085.676.085 1.015Zm-3.898-.931c.254.339.339.762.254 1.184-.084.423-.254.846-.593 1.1-.339.254-.762.423-1.186.423-.424 0-.847-.169-1.186-.423-.339-.254-.509-.677-.593-1.1-.085-.422 0-.845.254-1.184h3.05Zm7.372-.93c-.085.085-.169.085-.254.085h-32.792c-.594 0-1.102-.254-1.441-.762-.847-1.437-2.627-4.059-4.321-5.835-.17-.254-.255-.508-.17-.761 1.441-3.891 5.762-13.447 5.762-13.447.085-.17 0-.339-.085-.423-.084-.085-.254-.169-.423-.085-.085 0-.17.085-.255.085-.508.253-1.101.338-1.61.507-.169 0-.254 0-.423.085.254-2.115.339-4.144.085-6.259h.423c1.864 0 3.22 1.438 3.644 2.791.593 1.861-.17 5.667-1.949 10.403-1.949 5.074-1.949 6.174-1.695 6.681a43.151 43.151 0 0 0 2.203 3.214c1.356 1.691 1.695 1.691 1.949 1.691h10.338c.424 0 .762-.169 1.101-.338.339-.254.509-.592.594-.93.254-.931.339-1.945.339-2.96 0-1.776-.424-3.299-1.272-4.652h11.44c2.796 1.184 4.745 2.622 6.101 4.06l.084.084c2.373 2.622 2.797 5.328 2.797 6.766 0-.169-.085-.085-.17 0Z"/><path stroke="#002A50" stroke-miterlimit="10" stroke-width=".513" d="M230.147 280.211h-.085l-2.288-.592-10.083-2.537-2.373-.592s-.084 0-.084-.085v-.084c.932-1.354 2.203-2.453 3.728-3.13 1.525-.592 3.22-.761 4.83-.338.084.169.169.254.254.338 1.695 1.776 3.389 4.398 4.237 5.751.423.592 1.017 1.015 1.779 1.1.085.084.085.084.085.169Zm0 0c.085-.085 0-.085 0 0Zm32.792-6.681c-.339-.592-.847-1.184-1.271-1.776.339-.931.085-1.946-.593-2.791a1.017 1.017 0 0 0-.424-.423 2.852 2.852 0 0 0-1.44-.93c-.509-.17-1.102-.17-1.695 0l-.932.338a14.27 14.27 0 0 0-1.101-.508c.423-.422.932-1.184.932-2.029.084-.677-.17-1.269-.678-1.861-.678-.677-1.61-1.099-2.542-1.099l-10.677.422c-1.101 0-2.288.677-2.288 2.03 0 1.692 1.102 2.876 2.034 3.045.932 1.268 1.44 2.875 1.44 4.651 0 .931-.084 1.861-.339 2.791-.084.423-.508.677-.932.677h-10.337c-.424-.169-2.203-2.284-3.474-4.483-.085-.169-.17-1.099 1.779-6.004 1.61-4.229 2.373-7.781 2.203-9.98l1.441-1.184c.169.338.423.592.762.761.085 0 .17.085.339.085a.77.77 0 0 0 .593-.254c.593-.507.848-1.691.593-2.706-.169-.677-.508-1.184-.932-1.269-.339-.084-.677 0-.932.169-.593.423-.847 1.438-.678 2.453l-1.355 1.099v-.084c-.509-1.692-2.034-3.383-4.407-3.383-.338 0-.593 0-.932.084-1.016.17-2.118 1.777-2.118 3.891 0 2.03.763 3.636 1.864 3.806h.17s.762 0 1.101-.085c.339-.085.763-.169 1.102-.254-1.102 2.453-4.152 9.473-5.339 12.602-.084.169-.084.253-.084.423-1.78-.339-3.559-.17-5.169.592-1.61.676-3.051 1.86-3.983 3.298-.169.254-.169.592-.084.846.084.253.339.507.593.507l1.779.423c-1.101 1.607-1.271 3.637-.678 5.413.678 1.776 2.119 3.214 3.983 3.806 1.864.592 3.898.169 5.423-.931 1.525-1.184 2.457-2.96 2.457-4.905v-.507l1.695.422c.254.085.593 0 .763-.169.254-.169.338-.423.338-.676h17.795a6.347 6.347 0 0 0 1.356 4.905 6.186 6.186 0 0 0 4.66 2.114 6.186 6.186 0 0 0 4.66-2.114c1.187-1.353 1.695-3.214 1.356-4.905h2.457c.339 0 .594-.17.848-.339.254-.253.339-.507.339-.845.084-1.692-.509-3.552-1.441-5.159Zm-27.962-21.567s.084-.084.169-.084c.17.084.339.254.424.761.169.761 0 1.607-.339 1.861a.265.265 0 0 1-.17.084c-.169-.084-.338-.253-.423-.761-.17-.761 0-1.607.339-1.861Zm22.793 16.408c.424-.085.848-.085 1.187 0 .423.084.762.338 1.016.676.17.169.255.339.424.423.424.508.593 1.015.593 1.607-1.016-1.015-2.203-1.861-3.474-2.537l.254-.169Zm-16.692-3.383c0-1.015.932-1.269 1.44-1.269l10.677-.423c.762 0 1.44.254 1.949.846.339.423.508.846.508 1.269-.085.845-.763 1.522-1.017 1.776h-12.117c-.508.084-1.44-.761-1.44-2.199Zm-15.253-9.557c0-1.353.594-2.453 1.102-2.876.169 1.946.169 3.891-.085 5.836-.593-.423-1.017-1.522-1.017-2.96Zm1.526 25.626c0 1.691-.848 3.298-2.203 4.313-1.356 1.015-3.136 1.269-4.83.761-1.61-.507-2.881-1.776-3.39-3.467-.508-1.607-.254-3.383.763-4.737l3.22.846c-.678.254-1.187.846-1.441 1.523a2.423 2.423 0 0 0 .17 2.029c.339.592.932 1.1 1.61 1.269.678.169 1.44.084 2.033-.338.593-.423 1.017-1.015 1.102-1.692a2.935 2.935 0 0 0-.509-2.03l3.22.846c.255.169.255.423.255.677Zm-3.559 0c0 .507-.17.93-.509 1.268-.339.339-.762.508-1.271.508-.508 0-.932-.169-1.271-.508-.339-.338-.508-.761-.508-1.268 0-.508.169-.931.508-1.269.339-.338.763-.507 1.271-.507.509 0 .932.169 1.271.507.339.338.509.846.509 1.269Zm36.351 0c0 1.522-.593 2.96-1.779 3.89-1.102 1.015-2.627 1.522-4.068 1.353-1.525-.169-2.881-.93-3.728-2.114-.932-1.184-1.271-2.706-1.017-4.144h2.881a2.38 2.38 0 0 0 .254 2.368c.509.676 1.271 1.099 2.119 1.099.847 0 1.61-.423 2.118-1.099a2.38 2.38 0 0 0 .254-2.368h2.881c0 .423.085.676.085 1.015Zm-3.898-.931c.254.339.339.762.254 1.184-.084.423-.254.846-.593 1.1-.339.254-.762.423-1.186.423-.424 0-.847-.169-1.186-.423-.339-.254-.509-.677-.593-1.1-.085-.422 0-.845.254-1.184h3.05Zm7.372-.93c-.085.085-.169.085-.254.085h-32.792c-.594 0-1.102-.254-1.441-.762-.847-1.437-2.627-4.059-4.321-5.835-.17-.254-.255-.508-.17-.761 1.441-3.891 5.762-13.447 5.762-13.447.085-.17 0-.339-.085-.423-.084-.085-.254-.169-.423-.085-.085 0-.17.085-.255.085-.508.253-1.101.338-1.61.507-.169 0-.254 0-.423.085.254-2.115.339-4.144.085-6.259h.423c1.864 0 3.22 1.438 3.644 2.791.593 1.861-.17 5.667-1.949 10.403-1.949 5.074-1.949 6.174-1.695 6.681a43.151 43.151 0 0 0 2.203 3.214c1.356 1.691 1.695 1.691 1.949 1.691h10.338c.424 0 .762-.169 1.101-.338.339-.254.509-.592.594-.93.254-.931.339-1.945.339-2.96 0-1.776-.424-3.299-1.272-4.652h11.44c2.796 1.184 4.745 2.622 6.101 4.06l.084.084c2.373 2.622 2.797 5.328 2.797 6.766 0-.169-.085-.085-.17 0Z"/><path fill="#002A50" stroke="#002A50" stroke-miterlimit="10" stroke-width=".513" d="M254.292 270.062h-6.271c-.254 0-.423.17-.423.423 0 .254.169.423.423.423h6.271c.254 0 .423-.169.423-.423-.084-.253-.254-.423-.423-.423ZM254.292 272.008h-6.271c-.254 0-.423.169-.423.423 0 .253.169.423.423.423h6.271c.254 0 .423-.17.423-.423 0-.254-.254-.423-.423-.423Z"/><path stroke="#002A50" stroke-linecap="round" stroke-linejoin="round" stroke-miterlimit="10" stroke-width="1.116" d="m215.145 251.543 5.168 2.622M215.145 259.149l5.168-2.622"/><path fill="#BED3E5" d="M138.249 405.688c22.229 0 40.249-17.985 40.249-40.172 0-22.187-18.02-40.172-40.249-40.172-22.229 0-40.249 17.985-40.249 40.172 0 22.187 18.02 40.172 40.249 40.172Z"/><path fill="#002A50" d="M158.486 354.667s-.084 0 0 0c-.084-.17-.084-.17-.168-.255l-.084-.085c-.084-.085-.168-.085-.252-.17l-5.294-2.378c.42-.679.756-1.444.84-2.293.168-2.123-1.26-3.992-3.445-4.586-1.681-.51-3.614-.085-5.546 1.104-.589.339-1.177.849-1.765 1.359l-3.95-1.784a.917.917 0 0 0-.672 0l-3.865 1.784c-1.765-1.529-3.782-2.633-5.799-2.633-.504 0-1.008.085-1.512.17-2.185.594-3.614 2.463-3.446 4.586.084.849.336 1.614.841 2.293l-5.294 2.378c-.085 0-.169.085-.253.17l-.084.085c-.084.085-.084.085-.084.17v.085c0 .085-.084.17-.084.255v22.338c0 .339.168.594.505.764l19.159 8.579c.084 0 .168.085.336.085s.168-.001.336-.085l19.16-8.579c.336-.17.504-.425.504-.764v-22.338c-.084-.085-.084-.17-.084-.255Zm-20.756 9.428v20.469l-8.319-3.737v-20.469l8.319 3.737Zm.84-1.444-7.899-3.567 6.555-2.888c.252 0 .588.085.84.085h.84c.253 0 .589-.085.841-.085l6.554 2.888-7.731 3.567Zm9.916-4.502-5.294-2.293c1.177-.17 2.353-.34 3.53-.594 1.092-.255 3.109-.935 4.705-2.124l4.202 1.869-7.143 3.142Zm-3.025-10.701c1.093-.68 2.185-1.105 3.109-1.105.336 0 .673.085 1.009.17 1.176.34 2.353 1.359 2.269 2.888-.084 2.039-2.942 3.482-5.463 4.162-2.184.51-4.453.764-6.638.934.756-2.123 3.025-5.351 5.714-7.049Zm-6.891-.17 2.941 1.359c-1.26 1.359-2.268 2.887-2.941 4.331-.672-1.444-1.68-2.972-2.941-4.331l2.941-1.359Zm-11.092-.765c.336-.085.672-.17 1.008-.17 3.614 0 7.647 4.927 8.908 8.154-2.269-.17-4.538-.34-6.639-.934-2.605-.68-5.378-2.123-5.462-4.162-.084-1.529 1.008-2.548 2.185-2.888Zm-1.765 6.54c1.513 1.189 3.53 1.869 4.706 2.124 1.177.254 2.353.509 3.529.594l-5.294 2.293-7.143-3.227 4.202-1.784Zm-5.462 3.228 7.479 3.397v20.47l-7.479-3.398v-20.469Zm19.16 7.814 8.319-3.737v20.469l-8.319 3.737v-20.469Zm10 16.053v-20.47l7.479-3.397v20.469l-7.479 3.398Z"/><path fill="#BED3E5" d="M238.749 405.688c22.229 0 40.249-17.985 40.249-40.172 0-22.187-18.02-40.172-40.249-40.172-22.229 0-40.249 17.985-40.249 40.172 0 22.187 18.02 40.172 40.249 40.172Z"/><path fill="#002A50" d="M256.408 376.569h-7.615l-4.791-8.198.171-.256c.684-.854 1.283-1.623 1.283-2.391 0-.513-.085-2.306-.171-2.733l-.428-3.245c-.085-.427-.085-.769-.085-1.196v-3.672c0-1.11-.514-2.135-1.369-2.818a4.455 4.455 0 0 0 2.053-3.16c.171-1.281-.256-2.647-1.198-3.586-.941-.94-2.224-1.452-3.593-1.281a4.697 4.697 0 0 0-3.252 1.964 4.45 4.45 0 0 0-.427 3.757 4.099 4.099 0 0 0 2.652 2.648c-1.112 1.195-1.882 2.647-2.396 4.269l-.941-1.537c-.171-.341-.684-.512-1.027-.256-.342.171-.427.598-.256.939l1.797 3.075c0 .341-.086.768-.086 1.11v1.366c0 2.05.513 4.014 1.626 5.722l.171.256c.256.427.428.94.428 1.452v5.038c0 .598-.257 1.111-.599 1.538l-1.113 1.11h-5.133c-2.995 0-6.075-.513-8.899-1.452l-2.395-.769c-.685-.17-1.455 0-2.054.427a2.342 2.342 0 0 0-.684 1.965 2.24 2.24 0 0 0 1.369 1.537l3.337 1.11c1.54.512 2.994.854 4.62 1.11-1.027.683-2.31 1.025-3.508.939-1.455 0-2.824-.427-3.936-1.195-1.369-.939-2.995-1.452-4.706-1.366v1.451c1.455 0 2.824.427 3.936 1.196 1.369.939 3.08 1.452 4.706 1.366 1.711 0 3.337-.427 4.706-1.366 1.198-.854 2.567-1.196 3.935-1.196 1.455 0 2.824.427 3.936 1.196 1.369.939 2.995 1.452 4.706 1.366 1.711 0 3.337-.427 4.706-1.366.342-.256.77-.427 1.112-.598h1.712l.684 2.306c-1.54.085-3.08.512-4.364 1.366-1.197.854-2.566 1.196-4.021 1.196s-2.823-.427-3.936-1.196c-1.369-.939-2.994-1.452-4.706-1.366-1.711 0-3.337.427-4.706 1.366-1.197.854-2.566 1.196-3.935 1.196-1.455 0-2.824-.427-3.936-1.196-1.369-.939-2.995-1.452-4.706-1.366v1.452c1.455 0 2.824.427 3.936 1.195 1.369.94 3.08 1.452 4.706 1.367 1.711 0 3.337-.427 4.706-1.367 1.197-.854 2.566-1.195 3.935-1.195 1.455 0 2.824.427 3.936 1.195 1.369.94 2.995 1.452 4.706 1.367 1.711 0 3.337-.427 4.706-1.367a6.442 6.442 0 0 1 4.107-1.195 4.458 4.458 0 0 0 2.652 2.476 4.4 4.4 0 0 0 3.594-.256c1.112-.598 1.882-1.623 2.224-2.904.257-1.195.086-2.476-.684-3.586.513-.427.77-1.025.77-1.623v-.598c-.171-.939-1.027-1.537-1.968-1.537Zm.685 2.05v.171c0 .256-.172.426-.343.597-.428-.341-.855-.512-1.369-.683l-2.139-.683h3.252c.256 0 .599.256.599.598Zm-10.011-2.05h-3.85v-6.575l3.85 6.575Zm-8.898-28.267c0-.768.342-1.537.855-2.049a2.995 2.995 0 0 1 2.054-.854c.77 0 1.54.342 2.053.854a2.98 2.98 0 0 1 .856 2.049 2.98 2.98 0 0 1-.856 2.05 2.99 2.99 0 0 1-2.053.854c-.77 0-1.54-.342-2.054-.854a2.98 2.98 0 0 1-.855-2.05Zm2.909 4.697.256-.256c.514.086 1.027.342 1.369.683.342.427.514.94.514 1.452v3.672c0 .513.085.94.171 1.452l.428 3.245c.085.256.085 1.537.085 2.562a3.222 3.222 0 0 1-.77 1.281l-2.139-3.587v-5.636a.674.674 0 0 0-.684-.683.766.766 0 0 0-.771.768v3.075l-1.368-2.306c.427-2.306 1.454-4.27 2.909-5.722Zm-1.284 13.664-.171-.256a9.88 9.88 0 0 1-1.454-5.124l4.106 7.003c-.256.341-.427.768-.427 1.195v7.088h-2.567l.085-.085c.685-.683 1.027-1.623 1.027-2.562v-5.039c0-.768-.257-1.537-.599-2.22Zm1.284 14.774c-.942 0-1.968-.171-2.824-.598h5.733c-.942.512-1.883.683-2.909.598Zm-5.562-1.964c-1.027-.427-2.053-.598-3.166-.598-.941 0-1.968.171-2.909.427-2.224-.171-4.363-.683-6.417-1.366l-3.337-1.111a.641.641 0 0 1-.427-.597c0-.171.085-.427.256-.513.171-.085.428-.171.599-.085l2.396.768c2.994 1.025 6.16 1.538 9.412 1.538h15.914l.428 1.451-12.749.086Zm18.481 6.49c-.684 0-1.283-.171-1.796-.598a2.881 2.881 0 0 1-1.113-1.537l-1.711-5.465 5.476 1.707c.941.257 1.626 1.025 1.968 1.965a2.845 2.845 0 0 1-.428 2.732c-.513.769-1.369 1.196-2.396 1.196Z"/><path fill="#002A50" d="M218.679 354.878h12.492c.257 0 .513-.171.599-.342.856-1.452.941-3.33.086-4.868-.771-1.537-2.311-2.562-4.022-2.732-.428-1.196-1.369-2.221-2.652-2.648-1.198-.427-2.567-.341-3.679.342-1.113.683-1.883 1.793-2.054 3.074-.257-.085-.513-.085-.77-.085-1.283 0-2.481.683-3.166 1.793a3.392 3.392 0 0 0 0 3.587c.599 1.195 1.797 1.879 3.166 1.879Zm0-5.807c.428 0 .77.085 1.112.341a.642.642 0 0 0 .77 0c.257-.171.343-.427.343-.683v-.342c0-.939.513-1.878 1.283-2.391.77-.512 1.797-.598 2.738-.256.856.342 1.54 1.196 1.711 2.135.086.342.343.598.685.598h.085c1.198 0 2.396.598 2.995 1.622.599 1.025.77 2.306.257 3.416h-12.064c-.771 0-1.455-.427-1.883-1.11-.428-.683-.428-1.537 0-2.135.428-.768 1.113-1.195 1.968-1.195Z"/><path stroke="#002A50" stroke-linecap="round" stroke-linejoin="round" stroke-miterlimit="10" stroke-width="1.417" d="M248.969 353.426h7.187M251.102 356.5h5.219M258.121 356.5h1.455M258.121 353.426h1.455M261.547 356.5h1.454"/><path fill="#BED3E5" d="M141.778 205.174c.794 0 1.489-.385 2.097-.906h.049l.137.732h1.488v-4.044c0-2.023-.905-3.065-2.667-3.065-1.104 0-2.084.41-2.903.906l.658 1.216c.632-.385 1.265-.658 1.91-.658.856 0 1.142.509 1.179 1.191-2.792.31-3.995 1.092-3.995 2.568 0 1.191.806 2.06 2.047 2.06Zm.595-1.427c-.533 0-.905-.236-.905-.769 0-.633.558-1.092 2.258-1.303v1.402c-.447.434-.831.67-1.353.67Zm9.961 1.427c.719 0 1.414-.385 1.923-.894h.037l.136.72h1.489v-9.888h-1.824v2.432l.075 1.092c-.509-.46-.993-.745-1.774-.745-1.489 0-2.916 1.377-2.916 3.648 0 2.282 1.117 3.635 2.854 3.635Zm.459-1.501c-.906 0-1.44-.708-1.44-2.159 0-1.39.67-2.134 1.452-2.134.434 0 .881.149 1.29.533v3.052c-.397.509-.806.708-1.302.708Zm7.562 1.327h1.824v-6.935h-1.824V205Zm.906-8.064c.632 0 1.067-.397 1.067-1.005 0-.596-.435-.98-1.067-.98-.633 0-1.055.384-1.055.98 0 .608.422 1.005 1.055 1.005Zm5.343 10.731h1.824v-2.109l-.062-1.129c.521.484 1.117.745 1.712.745 1.526 0 2.953-1.365 2.953-3.747 0-2.146-1.018-3.536-2.73-3.536-.744 0-1.464.385-2.034.893h-.038l-.148-.719h-1.477v9.602Zm3.077-3.994c-.372 0-.819-.125-1.253-.509v-3.065c.471-.483.893-.719 1.352-.719.968 0 1.377.732 1.377 2.072 0 1.501-.645 2.221-1.476 2.221ZM177.07 205h1.823v-6.935h-1.823V205Zm.905-8.064c.633 0 1.067-.397 1.067-1.005 0-.596-.434-.98-1.067-.98-.632 0-1.054.384-1.054.98 0 .608.422 1.005 1.054 1.005Zm7.329 8.238c1.799 0 2.754-.968 2.754-2.196 0-1.278-1.005-1.75-1.923-2.097-.744-.26-1.377-.459-1.377-.955 0-.41.285-.683.918-.683.509 0 1.005.249 1.489.596l.831-1.092c-.571-.446-1.365-.856-2.369-.856-1.588 0-2.581.881-2.581 2.109 0 1.179.98 1.7 1.861 2.047.72.273 1.452.521 1.452 1.03 0 .434-.323.744-1.018.744-.645 0-1.228-.285-1.861-.769l-.819 1.154c.683.571 1.713.968 2.643.968Zm9.579 0c.769 0 1.625-.261 2.283-.832l-.72-1.203c-.384.31-.856.558-1.364.558-.993 0-1.712-.856-1.712-2.158 0-1.315.707-2.159 1.786-2.159.372 0 .707.149 1.055.447l.856-1.167a2.958 2.958 0 0 0-2.023-.769c-1.885 0-3.535 1.34-3.535 3.648 0 2.295 1.464 3.635 3.374 3.635Zm6.084-.174h1.823v-6.935h-1.823V205Zm.905-8.064c.633 0 1.067-.397 1.067-1.005 0-.596-.434-.98-1.067-.98-.632 0-1.054.384-1.054.98 0 .608.422 1.005 1.054 1.005ZM214.071 205h2.109l2.32-6.935h-1.761l-1.018 3.461c-.186.683-.372 1.39-.558 2.097h-.062c-.186-.707-.372-1.414-.558-2.097l-1.005-3.461h-1.849l2.382 6.935Zm10.924.174c.856 0 1.725-.286 2.407-.757l-.608-1.129c-.509.31-1.005.484-1.563.484-1.03 0-1.774-.583-1.936-1.725h4.293a4.49 4.49 0 0 0 .074-.843c0-1.923-.98-3.313-2.903-3.313-1.637 0-3.225 1.39-3.225 3.648 0 2.295 1.513 3.635 3.461 3.635Zm-1.724-4.343c.148-1.017.794-1.538 1.526-1.538.893 0 1.315.596 1.315 1.538h-2.841Zm10.099 4.343c.434 0 .72-.075.931-.149l-.224-1.352c-.124.024-.173.024-.236.024-.173 0-.359-.136-.359-.57v-8.015h-1.824v7.94c0 1.29.434 2.122 1.712 2.122Zm4.683-.174h1.823v-6.935h-1.823V205Zm.905-8.064c.633 0 1.067-.397 1.067-1.005 0-.596-.434-.98-1.067-.98-.632 0-1.054.384-1.054.98 0 .608.422 1.005 1.054 1.005Zm7.875 8.238c.62 0 1.104-.137 1.476-.261l-.298-1.327c-.198.074-.459.161-.694.161-.608 0-.943-.372-.943-1.166v-3.089h1.724v-1.427h-1.724v-1.886h-1.514l-.198 1.886-1.08.074v1.353h.968v3.089c0 1.551.633 2.593 2.283 2.593Zm6.044 0c.645 0 1.142-.509 1.142-1.191 0-.683-.497-1.179-1.142-1.179-.657 0-1.129.496-1.129 1.179 0 .682.472 1.191 1.129 1.191ZM141.778 163.174c.794 0 1.489-.385 2.097-.906h.049l.137.732h1.488v-4.044c0-2.023-.905-3.065-2.667-3.065-1.104 0-2.084.41-2.903.906l.658 1.216c.632-.385 1.265-.658 1.91-.658.856 0 1.142.509 1.179 1.191-2.792.31-3.995 1.092-3.995 2.568 0 1.191.806 2.06 2.047 2.06Zm.595-1.427c-.533 0-.905-.236-.905-.769 0-.633.558-1.092 2.258-1.303v1.402c-.447.434-.831.67-1.353.67Zm9.961 1.427c.719 0 1.414-.385 1.923-.894h.037l.136.72h1.489v-9.888h-1.824v2.432l.075 1.092c-.509-.46-.993-.745-1.774-.745-1.489 0-2.916 1.377-2.916 3.648 0 2.282 1.117 3.635 2.854 3.635Zm.459-1.501c-.906 0-1.44-.708-1.44-2.159 0-1.39.67-2.134 1.452-2.134.434 0 .881.149 1.29.533v3.052c-.397.509-.806.708-1.302.708Zm7.562 1.327h1.824v-6.935h-1.824V163Zm.906-8.064c.632 0 1.067-.397 1.067-1.005 0-.596-.435-.98-1.067-.98-.633 0-1.055.384-1.055.98 0 .608.422 1.005 1.055 1.005Zm5.343 10.731h1.824v-2.109l-.062-1.129c.521.484 1.117.745 1.712.745 1.526 0 2.953-1.365 2.953-3.747 0-2.146-1.018-3.536-2.73-3.536-.744 0-1.464.385-2.034.893h-.038l-.148-.719h-1.477v9.602Zm3.077-3.994c-.372 0-.819-.125-1.253-.509v-3.065c.471-.483.893-.719 1.352-.719.968 0 1.377.732 1.377 2.072 0 1.501-.645 2.221-1.476 2.221ZM177.07 163h1.823v-6.935h-1.823V163Zm.905-8.064c.633 0 1.067-.397 1.067-1.005 0-.596-.434-.98-1.067-.98-.632 0-1.054.384-1.054.98 0 .608.422 1.005 1.054 1.005Zm7.329 8.238c1.799 0 2.754-.968 2.754-2.196 0-1.278-1.005-1.75-1.923-2.097-.744-.26-1.377-.459-1.377-.955 0-.41.285-.683.918-.683.509 0 1.005.249 1.489.596l.831-1.092c-.571-.446-1.365-.856-2.369-.856-1.588 0-2.581.881-2.581 2.109 0 1.179.98 1.7 1.861 2.047.72.273 1.452.521 1.452 1.03 0 .434-.323.744-1.018.744-.645 0-1.228-.285-1.861-.769l-.819 1.154c.683.571 1.713.968 2.643.968Zm9.579 0c.769 0 1.625-.261 2.283-.832l-.72-1.203c-.384.31-.856.558-1.364.558-.993 0-1.712-.856-1.712-2.158 0-1.315.707-2.159 1.786-2.159.372 0 .707.149 1.055.447l.856-1.167a2.958 2.958 0 0 0-2.023-.769c-1.885 0-3.535 1.34-3.535 3.648 0 2.295 1.464 3.635 3.374 3.635Zm6.084-.174h1.823v-6.935h-1.823V163Zm.905-8.064c.633 0 1.067-.397 1.067-1.005 0-.596-.434-.98-1.067-.98-.632 0-1.054.384-1.054.98 0 .608.422 1.005 1.054 1.005ZM214.071 163h2.109l2.32-6.935h-1.761l-1.018 3.461c-.186.683-.372 1.39-.558 2.097h-.062c-.186-.707-.372-1.414-.558-2.097l-1.005-3.461h-1.849l2.382 6.935Zm10.924.174c.856 0 1.725-.286 2.407-.757l-.608-1.129c-.509.31-1.005.484-1.563.484-1.03 0-1.774-.583-1.936-1.725h4.293a4.49 4.49 0 0 0 .074-.843c0-1.923-.98-3.313-2.903-3.313-1.637 0-3.225 1.39-3.225 3.648 0 2.295 1.513 3.635 3.461 3.635Zm-1.724-4.343c.148-1.017.794-1.538 1.526-1.538.893 0 1.315.596 1.315 1.538h-2.841Zm10.099 4.343c.434 0 .72-.075.931-.149l-.224-1.352c-.124.024-.173.024-.236.024-.173 0-.359-.136-.359-.57v-8.015h-1.824v7.94c0 1.29.434 2.122 1.712 2.122Zm4.683-.174h1.823v-6.935h-1.823V163Zm.905-8.064c.633 0 1.067-.397 1.067-1.005 0-.596-.434-.98-1.067-.98-.632 0-1.054.384-1.054.98 0 .608.422 1.005 1.054 1.005Zm7.875 8.238c.62 0 1.104-.137 1.476-.261l-.298-1.327c-.198.074-.459.161-.694.161-.608 0-.943-.372-.943-1.166v-3.089h1.724v-1.427h-1.724v-1.886h-1.514l-.198 1.886-1.08.074v1.353h.968v3.089c0 1.551.633 2.593 2.283 2.593Zm6.044 0c.645 0 1.142-.509 1.142-1.191 0-.683-.497-1.179-1.142-1.179-.657 0-1.129.496-1.129 1.179 0 .682.472 1.191 1.129 1.191Z"/><path fill="#B57556" d="M80.005 123h5.961l3.046-12.184c.623-2.424 1.278-5.273 1.867-7.828h.131c.655 2.489 1.277 5.404 1.932 7.828L95.99 123h6.157L94.58 98.6h-7.009L80.005 123Zm5.142-5.601h11.791v-4.52h-11.79v4.52ZM110.798 123h5.83v-10.645c.95-2.456 2.62-3.341 3.996-3.341.819 0 1.376.132 2.063.295l.95-5.011c-.524-.229-1.146-.393-2.26-.393-1.867 0-3.93 1.212-5.306 3.701h-.098l-.426-3.242h-4.749V123Zm27.817 7.828c6.486 0 10.58-2.784 10.58-6.714 0-3.374-2.621-4.782-7.206-4.782h-2.948c-1.998 0-2.751-.393-2.751-1.245 0-.655.197-.917.59-1.31a8.289 8.289 0 0 0 2.194.327c4.127 0 7.435-1.899 7.435-6.255 0-.885-.229-1.736-.491-2.26h2.849v-4.225h-6.845c-.852-.295-1.867-.459-2.948-.459-4.029 0-7.795 2.227-7.795 6.747 0 2.195 1.212 3.93 2.555 4.848v.131c-1.245.851-2.097 2.161-2.097 3.471 0 1.573.721 2.555 1.704 3.21v.164c-1.736.884-2.621 2.129-2.621 3.668 0 3.341 3.505 4.684 7.795 4.684Zm.459-17.228c-1.343 0-2.358-.983-2.358-2.948 0-1.867 1.015-2.849 2.358-2.849 1.376 0 2.391.982 2.391 2.849 0 1.965-1.015 2.948-2.391 2.948Zm.459 13.592c-2.359 0-3.931-.655-3.931-1.965 0-.622.262-1.146.852-1.67.589.164 1.31.229 2.653.229h1.768c1.736 0 2.719.229 2.719 1.343 0 1.179-1.67 2.063-4.061 2.063Zm26.657-3.733c2.162 0 4.716-.754 6.649-2.129l-1.933-3.505c-1.343.786-2.587 1.179-3.93 1.179-2.358 0-4.127-1.048-4.651-3.603h10.94c.131-.458.262-1.474.262-2.522 0-5.076-2.621-8.974-7.992-8.974-4.487 0-8.843 3.734-8.843 9.76 0 6.191 4.126 9.794 9.498 9.794Zm-3.963-11.89c.393-2.194 1.801-3.21 3.406-3.21 2.129 0 2.948 1.376 2.948 3.21h-6.354ZM183.801 123h5.83v-12.446c1.114-1.081 1.9-1.671 3.21-1.671 1.474 0 2.162.721 2.162 3.309V123h5.83v-11.529c0-4.651-1.736-7.566-5.798-7.566-2.521 0-4.421 1.277-5.961 2.784h-.098l-.426-2.325h-4.749V123Zm35.446.459c1.899 0 3.242-.393 4.225-.688l-.917-4.225c-.459.163-1.114.36-1.704.36-1.375 0-2.358-.819-2.358-2.882v-7.108h4.389v-4.552h-4.389v-4.946h-4.814l-.655 4.946-2.883.229v4.323h2.522v7.173c0 4.389 1.9 7.37 6.584 7.37Zm13.799-.459h5.83v-18.636h-5.83V123Zm2.915-21.224c1.932 0 3.242-1.179 3.242-3.013 0-1.802-1.31-2.98-3.242-2.98-1.965 0-3.243 1.178-3.243 2.98 0 1.834 1.278 3.013 3.243 3.013ZM250.12 123h5.83v-12.446c1.113-1.081 1.899-1.671 3.209-1.671 1.474 0 2.162.721 2.162 3.309V123h5.83v-11.529c0-4.651-1.736-7.566-5.797-7.566-2.522 0-4.422 1.277-5.961 2.784h-.099l-.425-2.325h-4.749V123Zm32.825.459c2.063 0 3.799-.95 5.338-2.326h.164l.393 1.867h4.749v-10.579c0-5.83-2.718-8.516-7.533-8.516-2.915 0-5.568.983-8.024 2.457l2.03 3.832c1.867-1.048 3.407-1.638 4.881-1.638 1.899 0 2.685.884 2.816 2.391-7.271.786-10.35 2.915-10.35 6.845 0 3.112 2.097 5.667 5.536 5.667Zm1.998-4.52c-1.212 0-1.998-.524-1.998-1.605 0-1.31 1.179-2.391 4.814-2.85v2.981c-.851.917-1.637 1.474-2.816 1.474Z"/></g><defs><clipPath id="a"><path fill="#fff" d="M0 0h376v493H0z"/></clipPath></defs></svg>