<svg xmlns="http://www.w3.org/2000/svg" width="80" height="64" fill="none"><g clip-path="url(#a)"><path fill="#D3A674" d="M47.105 43.745C66.904 27.47 78.548 8.965 73.112 2.413S47.219 3.743 27.42 20.02C7.62 36.295-4.023 54.8 1.413 61.351c5.435 6.552 25.892-1.33 45.692-17.606Z"/><path fill="#5186BC" d="M49.087 37.784c-13.724 11.2-19.536 12.554-24.853 6.154-7.048-8.492-4.327-13.415 9.398-24.738C47.356 7.877 61.823 2.954 66.15 8.123c4.328 5.17-3.462 18.338-17.063 29.661Z"/><path stroke="#002A50" stroke-miterlimit="10" stroke-width=".201" d="M57.74 5.047 67.755 17.11c.248.246-.123.615-.37.492l-16.94-9.23c-.248-.124-.619.245-.371.492L62.562 24c.247.246.618 0 .495-.246L57.245 5.293c-.123-.246.248-.492.495-.246Z"/><path fill="#002A50" d="M67.269 17.725a.373.373 0 0 1 0-.492l.618-.492a.377.377 0 0 1 .494 0 .373.373 0 0 1 0 .492l-.618.492a.378.378 0 0 1-.495 0ZM57.124 5.538a.373.373 0 0 1 0-.492l.618-.493a.377.377 0 0 1 .495 0 .373.373 0 0 1 0 .493l-.618.492a.377.377 0 0 1-.495 0ZM49.831 8.495a.373.373 0 0 1 0-.492l.618-.493a.377.377 0 0 1 .495 0 .373.373 0 0 1 0 .493l-.618.615c-.124.123-.371.123-.495-.123ZM62.815 24.245a.373.373 0 0 1 0-.492l.619-.493a.377.377 0 0 1 .494 0 .373.373 0 0 1 0 .493l-.618.492a.377.377 0 0 1-.495 0ZM17.432 38.153a.373.373 0 0 1 0 .493l-.618.492a.377.377 0 0 1-.495 0 .373.373 0 0 1 0-.492l.619-.493c.123-.246.37-.246.494 0ZM27.577 50.337a.373.373 0 0 1 0 .492l-.619.493a.377.377 0 0 1-.494 0 .373.373 0 0 1 0-.493l.618-.492c.124-.246.371-.246.495 0ZM34.87 47.26a.373.373 0 0 1 0 .492l-.619.492a.377.377 0 0 1-.494 0 .373.373 0 0 1 0-.492l.618-.493c.124-.246.371-.123.495 0ZM21.76 31.51a.373.373 0 0 1 0 .493l-.618.492a.377.377 0 0 1-.495 0 .373.373 0 0 1 0-.492l.619-.493a.377.377 0 0 1 .494 0Z"/><path fill="#D6A85C" d="M1.361 61.294c2.844 3.446 9.768 2.953 18.67-.616 5.07-5.784 4.823-9.97 0-16-3.709-4.43-7.665-5.17-14.466-1.354-5.317 7.877-7.048 14.523-4.204 17.97Z"/><path stroke="#002A50" stroke-miterlimit="10" stroke-width=".201" d="M26.956 50.706 16.941 38.645c-.247-.247.124-.616.37-.493l16.94 9.231c.248.123.619-.246.372-.492L22.01 31.875c-.248-.246-.619 0-.495.247L27.45 50.46c.124.246-.247.492-.495.246Z"/><path fill="#002A50" d="M15.952 42.213a.373.373 0 0 1 0 .493l-.619.492a.377.377 0 0 1-.494 0 .373.373 0 0 1 0-.492l.618-.493a.377.377 0 0 1 .495 0ZM22.752 50.338a.373.373 0 0 1 0 .493l-.618.492a.377.377 0 0 1-.494 0 .373.373 0 0 1 0-.492l.618-.493a.377.377 0 0 1 .494 0Z"/><path stroke="#002A50" stroke-miterlimit="10" stroke-width=".216" d="m26.71 50.46-10.758-7.754c-.247-.123-.37.123-.247.246l6.306 7.631c.123.123.37 0 .247-.246l-5.193-11.693"/></g><defs><clipPath id="a"><path fill="#fff" d="M0 0h80v64H0z"/></clipPath></defs></svg>