<svg xmlns="http://www.w3.org/2000/svg" width="77" height="75" fill="none"><g clip-path="url(#a)"><path fill="#B87757" d="M59.89 65.256c4.483-5.25-4.685-20.438-20.477-33.924C23.62 17.846 7.183 11.169 2.7 16.419c-4.484 5.25 4.684 20.44 20.477 33.925C38.969 63.83 55.407 70.507 59.89 65.256Z"/><path fill="#BED3E5" stroke="#BED3E5" stroke-miterlimit="10" stroke-width=".216" d="M34.427 30.62c10.898 9.286 12.797 13.855 8.407 18.963-5.849 6.844-10.131 5.262-21.129-4.009-10.997-9.27-16.902-20.316-13.367-24.386s15.175.048 26.089 9.433Z"/><path stroke="#002A50" stroke-miterlimit="10" stroke-width=".201" d="m7.073 28.254 8.247-9.731c.168-.228.51.024.44.237l-5.057 14.815c-.07.212.272.464.44.237l10.323-12.066c.168-.227-.074-.494-.257-.366L7.33 28.62c-.182.129-.424-.138-.256-.366Z"/><path fill="#002A50" d="M15.889 18.944a.304.304 0 0 1-.396.06l-.47-.436a.304.304 0 0 1-.059-.396.304.304 0 0 1 .396-.059l.47.435a.304.304 0 0 1 .059.396ZM7.543 28.687a.304.304 0 0 1-.396.06l-.569-.421a.304.304 0 0 1-.06-.396.304.304 0 0 1 .396-.06l.47.436c.213.07.243.267.159.38ZM10.975 34.038a.304.304 0 0 1-.396.059l-.47-.435a.304.304 0 0 1-.059-.396.304.304 0 0 1 .396-.06l.47.436a.304.304 0 0 1 .059.395ZM21.734 21.503a.304.304 0 0 1-.396.06l-.568-.42a.304.304 0 0 1-.06-.396.304.304 0 0 1 .396-.06l.47.435c.212.07.242.267.158.381ZM39.1 55.704a.304.304 0 0 1 .396-.06l.47.435a.304.304 0 0 1 .06.396.304.304 0 0 1-.396.06l-.47-.436c-.113-.084-.128-.183-.06-.395ZM47.445 45.958a.304.304 0 0 1 .395-.06l.47.435a.304.304 0 0 1 .06.396.304.304 0 0 1-.396.06l-.47-.436a.304.304 0 0 1-.06-.395ZM44.015 40.606a.304.304 0 0 1 .396-.06l.47.436a.304.304 0 0 1 .059.395.304.304 0 0 1-.396.06l-.47-.435a.304.304 0 0 1-.059-.396ZM33.257 53.141a.304.304 0 0 1 .396-.06l.47.436a.304.304 0 0 1 .059.395.304.304 0 0 1-.396.06l-.455-.336c-.128-.183-.158-.381-.074-.495Z"/><path fill="#D7A793" d="M59.958 65.314c2.314-2.775.989-8.238-3.13-14.8-5.326-3.144-8.659-2.442-12.797 2.325-3.1 3.6-3.12 6.839.945 11.69 7.12 2.975 12.654 3.46 14.982.785Z"/><path stroke="#002A50" stroke-miterlimit="10" stroke-width=".201" d="m47.915 46.392-8.247 9.732c-.168.227-.509-.025-.44-.238l5.058-14.814c.069-.213-.272-.465-.44-.238L33.522 52.9c-.168.228.074.495.257.366l13.78-7.225c.282-.143.525.124.356.351Z"/><path fill="#002A50" d="M42.624 56.286a.304.304 0 0 1 .396-.06l.47.435a.304.304 0 0 1 .06.396.304.304 0 0 1-.396.06l-.47-.436c-.1.015-.129-.183-.06-.395ZM48.222 49.786a.304.304 0 0 1 .396-.06l.47.435a.304.304 0 0 1 .059.396.304.304 0 0 1-.396.06l-.47-.436a.304.304 0 0 1-.059-.395Z"/><path stroke="#002A50" stroke-miterlimit="10" stroke-width=".216" d="m47.748 46.62-4.712 9.707c-.069.212.144.281.228.168l5.245-6.147c.085-.114-.044-.297-.227-.168l-8.544 5.731"/><path fill="#9DBBCE" d="M48.923 29.636 12.509 47.553c-.518.276-1.29.036-1.49-.566-.253-.516.011-1.308.612-1.532l36.497-17.866c.518-.276 1.29-.037 1.49.566.116.55-.095 1.256-.695 1.48Z"/><path fill="#9DBBCE" d="m62.81 29.238-9.492 4.657c-3.2 1.61-7.099.27-8.517-3.007-1.473-3.19-.01-7.196 3.273-8.754l9.492-4.656c1.642-.78 3.522-.092 4.285 1.46l2.637 5.95c.709 1.638-.09 3.658-1.678 4.35Z"/><path fill="#B5C6D2" d="m13.256 46.86-.793.347c-.52.276-1.294.036-1.494-.568-.254-.517.01-1.31.613-1.536l.848-.433c.52-.277 1.293-.036 1.494.567.2.604-.094 1.26-.668 1.623ZM43.333 30.237l-1.93.931.938 2.054 1.93-.93-.938-2.055Z"/></g><defs><clipPath id="a"><path fill="#fff" d="M0 10.102 67.307 0l9.602 63.983L9.602 74.085z"/></clipPath></defs></svg>