<svg xmlns="http://www.w3.org/2000/svg" width="65" height="62" fill="none"><path fill="#9BB554" d="M54.136 49.89c1.548.242 3.216-.355 4.222-1.485-.43.79-4.463-1.985-5.125-2.518-.854-.67-1.322-1.816-2.532-1.469a3.227 3.227 0 0 0-1.892 1.42c-.563.986-.195 1.365.673 1.93 1.31 1.17 3.003 1.864 4.654 2.122ZM19.838 11.422c.659-3.125.784-5.473-1.692-8.121C15.02.014 5.978-1.079 7.23 5.682c.496 2.446 2.472 4.154 3.797 5.976 1.222 1.805 1.852 4.056 2.511 6.097.806 2.493.919 4.663 2.865 6.582 1.208 1.158 2.992 2.729 4.768 2.146 4.32-1.37-1.328-6.235-1.973-8.38-.748-2.163.131-4.608.64-6.68ZM27.627 31.51c-2.36-2.737-6.888-2.154-8.48.828-1.545 2.665-1.364 6.57-.514 9.503.777 2.706 4.908 12.29 8.997 10.345 3.51-1.605-1.124-5.452-1.711-7.267-.865-2.827-.488-5.46 1.19-7.567 1.543-1.912 2.436-3.71.518-5.841ZM46.24 42.567c-1.903-2.236-5.677-1.75-7.074.617-1.263 2.17-1.094 5.428-.376 7.801.63 2.252 4.056 10.11 7.448 8.595 2.829-1.28-.935-4.56-1.36-6.027-.733-2.268-.401-4.585.993-6.198 1.262-1.417 1.902-2.932.369-4.788Z"/><path fill="#738841" d="M54.098 39.679c1.718 2.739 3.2 5.656-.066 7.83-3.518 2.456-8.368.946-11.727-.654-8.223-3.757-16.961-7.594-21.644-16.167-1.762-3.175-3.212-7.054-2.98-10.884.246-3.935 3.044-2.1 5.7-2.222 1.166-.033 2.302.145 3.467.113 1.387-.106 2.553-.138 3.88.177 3.981.945 6.969 3.668 10.06 6.407 5.136 4.67 12.632 9.816 13.925 17"/><path fill="#9BB554" d="M32.097 37.828c4.343 3.581 9.589 6.766 15.135 7.849 5.546 1.083 8.243-3.008 8.433-8.028.067-2.676-.975-4.988-2.326-7.349-3.363-6.006-8.97-11.826-15.65-13.838-5.765-1.762-17.814.543-16.212 8.53 1.091 5.65 6.364 9.377 10.62 12.836Z"/><path fill="#C1CC64" d="M32.403 16.788c.103.017.103.017 0 0 2.021-.113 3.91-.032 5.324.404 1.267.735 2.504 1.68 3.282 2.876.353.485.588 1.058.394 1.672-.208.72-.815 1.269-1.494 1.592-.237.178-.458.25-.783.307-.325.057-.768.202-.974.17-.103-.016-.103-.016-.222.072-.53.025-1.062.05-1.578-.032-1.032-.161-2.374-.371-3.11-1.13-1.088-1.245-3.41-4.937-.84-5.93ZM41.97 23.426c.461-1.004.508-2.072.349-3.173.355-.267.68-.324 1.094-.26a35.56 35.56 0 0 1 4.245 3.57c.338.59.543 1.376.452 2.007-.254 1.037-1.453 2.032-2.428 2.202-1.301.227-2.467-.493-3.158-1.57-.338-.59-.543-1.376-.66-2.04l.106-.736c-.015.105-.015.105 0 0ZM46.146 44.03c-1.047-.057-2.151-.444-3.168-.71-.501-.186-2.962-.678-3.27-1.477.119-.089.237-.178.34-.162 0 0 .103.017.118-.088a10.32 10.32 0 0 0 3.319-.34c.664-.217 1.328-.435 1.919-.88-.017.856.069 1.728.583 2.559.264.363.425.71.808.984-.118.089-.34.162-.649.113ZM42.69 40.361l-.31-.048c-.738-.008-1.403.21-2.141.202-.841-.024-1.668-.153-2.449-.598-.693-.323-1.459-.873-2.033-1.285-.471-.397-.454-1.254-.38-1.78.003-.751.373-1.123.685-1.827.46-1.003 1.437-1.925 2.368-2.531 1.493-.841 3.888-2.079 5.523-.963.073.227.162.348.338.59.66 1.286 1.838 2.652 3.254 3.09-.977.921-1.586 2.223-1.884 3.573-.104-.016-.222.073-.252.283-.284 1.246-1.553 1.262-2.72 1.294ZM27.34 29.808a10.082 10.082 0 0 1 2.031-2.372 11.374 11.374 0 0 1 2.68-1.733c.458-.25 1.05-.696 1.389-.105.265.364.086.874.144 1.206.086.875.188 1.644.496 2.445.22.68.455 1.255.793 1.846.338.59.81.987 1.148 1.578.515.834-.226 1.579-.642 2.267-.415.688-.83 1.376-1.158 2.186-.814.518-3.04-1.66-3.511-2.056-.649-.64-1.43-1.085-2.197-1.635-.752-.656-1.696-1.45-1.649-2.518l.015-.105c.06-.421.21-.72.461-1.004Z"/><path fill="#C1CC64" d="M30.144 17.11c.192.138.384.275.457.502-.373 1.126.14 2.712.728 3.773.265.364.427.712.795 1.093l-.015.105c-.015.105.089.122.177.243-.015.105.088.121.073.227l.265.364c.177.243.147.453-.002.753-.118.089-.133.194-.045.316-.237.178-.577.34-.799.413-1.036.59-2.16 1.06-3.02 1.895a13.312 13.312 0 0 0-1.63 1.789c-.104-.016-.119.089-.119.089-.386.478-1.068 1.555-1.82.899-.56-.518-.884-1.215-1.222-1.806-.515-.834-1.133-1.684-1.53-2.607-.088-.12-.058-.331-.146-.453-.328-4.356 3.61-6.752 7.853-7.595ZM34.984 24.307l1.343.21c.62.097 1.358.105 2.008-.008l.103.016c.325-.057.753-.097 1.093-.26.65-.113 1.403-.21 1.461.122-.015.105.074.226.177.243.101.768.409 1.569.85 2.175.353.485.721.866 1.208 1.157.161.347.338.59.38 1.027-.163.404-.223.825-.666.97-.119.09-.222.073-.237.178-1.683-.048-3.501.85-4.773 1.618-.236.178-.473.356-.695.429-1.446-.226-2.208-2.28-2.677-3.43-.263-1.115-.788-3.347.425-4.447ZM48.29 35.624c.118-.089.118-.089.133-.194 1.256.089 2.588-.349 3.536-1.062l.119-.089c.355-.267.83-.623 1.2-.996.222-.073.429-.04.724.114.455 1.255.703 2.478.714 3.879-.064 1.927-.527 3.685-1.462 5.045-.222.073-.356.268-.475.357-.118.089-.133.194-.148.3-.49.461-.979.923-1.645 1.142-.99.275-1.892-.081-2.926-.243l-.104-.017a3.345 3.345 0 0 1-1.002-1.125c-.692-1.077-.645-2.146-.376-3.288a6.05 6.05 0 0 1 1.711-3.823ZM44.64 29.655c.046-.316.12-.841.55-.882.103.016.118-.089.221-.073.103.017.222-.072.325-.056.975-.17 2.129-.85 2.678-1.732l.015-.105c.267-.389.637-.76 1.227-.453l.206.032c.368.38.618.85.883 1.213.53.729 1.06 1.457 1.486 2.169.426.712.734 1.513.304 2.306l-.046.315c-.163.405-.415.688-.667.971-.236.178-.473.356-.695.43-.118.088-.118.088-.133.193-1.036.591-2.454.907-3.619.187s-2.342-2.088-2.678-3.43l-.175-.996c-.015.105.103.016.118-.089Z"/><path fill="#738841" d="M20.682 33.004c.176.243.353.486.411.818a.577.577 0 0 1-.385.477c-.222.073-.429.04-.517-.08-.192-.138-.368-.381-.235-.575a.809.809 0 0 1 .282-.494c.119-.09.222-.073.325-.057.089.122.296.154.265.364l-.015.106s-.015.105 0 0c.089.121.059.332-.06.42-.118.09-.325.057-.414-.064-.088-.121-.073-.227-.058-.332l.015-.105-.015.105c.104.016.222-.073.326-.057 0 0-.119.09-.134.195.015-.106 0 0 0 0l-.015.105c-.015.105.015-.105 0 0l-.015.105c.015-.105 0 0 0 0s.015-.105 0 0c0 0-.088-.121 0 0 0 0-.088-.121 0 0 0 0-.104-.016 0 0 0 0-.104-.016 0 0 .103.016-.104-.016 0 0 0 0-.104-.016 0 0 .103.016-.104-.016 0 0-.119.09 0 0 0 0 .015-.105-.015.105 0 0s-.015.105 0 0c-.015.105 0 0 0 0 .015-.105-.015.105 0 0l.015-.105s.015-.105 0 0l-.088-.121-.089-.122c-.088-.121-.176-.243-.043-.437.149-.3.355-.267.444-.146ZM21.272 35.474c.015-.105 0 0 0 0 .015-.105 0 0 0 0 .192.138.28.259.265.364-.03.21-.267.389-.459.251-.103-.016-.191-.137-.28-.259-.088-.121-.191-.137-.161-.348.015-.105.03-.21.148-.3.134-.194.444-.145.636-.007.103.016.176.242.161.348-.015.105-.237.178-.443.145 0 0 .103.017 0 0 0 0-.104-.016 0 0 0 0-.104-.016 0 0l.103.017s.015-.106 0 0c.015-.106-.073-.227-.073-.227l.103.016c-.103-.016 0 0 0 0-.015.105.088.121.088.121a1.42 1.42 0 0 1-.458.251c-.015.106 0 0 0 0s-.104-.016-.088-.121c-.089-.121-.177-.243-.162-.348.015-.105.148-.3.252-.283.207.032.398.17.368.38ZM19.981 34.946c-.015.105.059.332-.06.421-.015.106-.119.09-.133.195-.12.089-.311-.049-.296-.154-.088-.122-.073-.227-.058-.332.015-.105.148-.3.252-.284l.207.033c.104.016.088.121.073.226-.015.106.015-.105 0 0 .015-.105-.088-.121-.088-.121l-.104-.016s-.103-.016-.118.089c-.104-.016-.119.089-.134.194 0 0 .015-.105 0 0l.03-.21c.015-.106.15-.3.253-.284.015-.105.207.033.176.243ZM41.401 51.94c.074.227.162.349.132.56.058.331-.386.477-.562.234-.177-.243-.25-.47-.323-.696-.162-.348.385-.477.547-.13.073.227.146.454.234.575-.221.073-.34.162-.562.235-.073-.227-.161-.348-.13-.559-.044-.437.503-.566.664-.218ZM40.446 52.013l-.045.316c-.015.105-.149.3-.252.283-.104-.016-.296-.154-.28-.26l.045-.315c.015-.105.148-.3.252-.284.119-.089.31.049.28.26ZM41.016 53.18c-.016.105.073.227.058.332.088.121-.045.316-.164.405-.118.089-.31-.049-.399-.17.015-.105-.073-.227-.058-.332-.088-.122.045-.316.164-.405.222-.073.325-.057.399.17ZM19.085 7.831c.089.122.177.243.162.348-.03.21-.356.268-.547.13-.192-.138-.25-.47-.22-.68.015-.105.03-.21.148-.3.119-.089.207.033.296.154.103.016.191.138.161.348.119-.089.119-.089 0 0 .104.016.104.016 0 0 .104.016.089.122.089.122.088.121.058.332-.06.42-.12.09-.326.057-.414-.064-.089-.121-.074-.227-.177-.243l.015-.105s.015-.105 0 0c.222-.073.34-.162.547-.13l-.015.106.015-.106c.015-.105.015-.105 0 0 0 0 .104.016 0 0 0 0 .104.016 0 0 .089.122 0 0 0 0 .104.016 0 0 0 0l-.207-.032c-.103-.016-.118.089-.221.073l-.03.21s-.016.106.088.122c-.089-.122-.162-.348-.043-.437.118-.09.325-.057.413.064ZM18.867 9.315c-.134.194-.134.194 0 0-.207-.033-.414-.065-.635.008l.015-.105.62.097c-.119.089-.119.089 0 0-.267.388-.754.097-.502-.186.045-.316.444-.146.502.186l-.03.21c-.149.3-.444.146-.517-.08-.088-.122.03-.211.045-.316-.058-.332.547-.13.502.186ZM17.911 8.626l.207.032c.015-.105 0 0 0 0 .015-.105 0 0 0 0-.015.105-.148.3-.252.284-.103-.017-.295-.154-.28-.26l.06-.42c.015-.106.119-.09.134-.195.118-.09.222-.073.325-.057.104.016.177.243.162.348-.045.316-.164.405-.356.268Z"/><ellipse fill="#6C6C6C" rx="1.053" ry="1.058" transform="matrix(.99761 -.04302 .04984 1.00022 14.502 4.618)"/></svg>