<svg xmlns="http://www.w3.org/2000/svg" width="1564" height="110" fill="none"><path fill="#E2D9D3" d="M0 0h782v109.538H0z"/><g clip-path="url(#a)"><path fill="#D4CAC0" d="M523.38 34H0v50.85h.865c16.69 0 25.122 6.41 33.295 12.56 8.215 6.238 15.999 12.128 31.954 12.128 15.913 0 23.696-5.89 31.955-12.127 8.172-6.194 16.604-12.561 33.295-12.561 16.691 0 25.122 6.41 33.295 12.56 8.216 6.238 15.999 12.128 31.954 12.128 15.956 0 23.696-5.89 31.955-12.127 8.172-6.194 16.604-12.561 33.295-12.561 16.691 0 25.123 6.41 33.295 12.56 8.216 6.238 15.999 12.128 31.955 12.128 15.912 0 23.695-5.89 31.954-12.127 8.172-6.194 16.604-12.561 33.295-12.561 16.691 0 25.123 6.41 33.295 12.56 8.216 6.238 15.999 12.128 31.955 12.128 15.912 0 23.695-5.89 31.954-12.127 8.173-6.194 16.604-12.561 33.295-12.561h.735c16.215.173 24.517 6.497 32.56 12.56 8.216 6.238 15.999 12.128 31.955 12.128 15.912 0 23.695-5.89 31.954-12.127 8.173-6.194 16.604-12.561 33.295-12.561 16.691 0 25.123 6.41 33.295 12.56 8.216 6.238 15.999 12.128 31.955 12.128 15.955 0 23.695-5.89 31.954-12.127 7.913-5.978 16.086-12.171 31.739-12.561V34H523.38Z"/></g><g clip-path="url(#b)"><path fill="#fff" d="M523.38 17H0v50.85h.865c16.69 0 25.122 6.41 33.295 12.56 8.215 6.238 15.999 12.128 31.954 12.128 15.913 0 23.696-5.89 31.955-12.127 8.172-6.194 16.604-12.561 33.295-12.561 16.691 0 25.122 6.41 33.295 12.56 8.216 6.238 15.999 12.128 31.954 12.128 15.956 0 23.696-5.89 31.955-12.127 8.172-6.194 16.604-12.561 33.295-12.561 16.691 0 25.123 6.41 33.295 12.56 8.216 6.238 15.999 12.128 31.955 12.128 15.912 0 23.695-5.89 31.954-12.127 8.172-6.194 16.604-12.561 33.295-12.561 16.691 0 25.123 6.41 33.295 12.56 8.216 6.238 15.999 12.128 31.955 12.128 15.912 0 23.695-5.89 31.954-12.127 8.173-6.194 16.604-12.561 33.295-12.561h.735c16.215.173 24.517 6.497 32.56 12.56 8.216 6.238 15.999 12.128 31.955 12.128 15.912 0 23.695-5.89 31.954-12.127 8.173-6.194 16.604-12.561 33.295-12.561 16.691 0 25.123 6.41 33.295 12.56 8.216 6.238 15.999 12.128 31.955 12.128 15.955 0 23.695-5.89 31.954-12.127 7.913-5.978 16.086-12.171 31.739-12.561V17H523.38Z"/></g><g clip-path="url(#c)"><path fill="#204379" d="M523.38 0H0v50.85h.865c16.69 0 25.122 6.41 33.295 12.56 8.215 6.238 15.999 12.128 31.954 12.128 15.913 0 23.696-5.89 31.955-12.127 8.172-6.194 16.604-12.561 33.295-12.561 16.691 0 25.122 6.41 33.295 12.56 8.216 6.238 15.999 12.128 31.954 12.128 15.956 0 23.696-5.89 31.955-12.127 8.172-6.194 16.604-12.561 33.295-12.561 16.691 0 25.123 6.41 33.295 12.56 8.216 6.238 15.999 12.128 31.955 12.128 15.912 0 23.695-5.89 31.954-12.127 8.172-6.194 16.604-12.561 33.295-12.561 16.691 0 25.123 6.41 33.295 12.56 8.216 6.238 15.999 12.128 31.955 12.128 15.912 0 23.695-5.89 31.954-12.127 8.173-6.194 16.604-12.561 33.295-12.561h.735c16.215.173 24.517 6.497 32.56 12.56 8.216 6.238 15.999 12.128 31.955 12.128 15.912 0 23.695-5.89 31.954-12.127 8.173-6.194 16.604-12.561 33.295-12.561 16.691 0 25.123 6.41 33.295 12.56 8.216 6.238 15.999 12.128 31.955 12.128 15.955 0 23.695-5.89 31.954-12.127 7.913-5.978 16.086-12.172 31.739-12.561V0H523.38Z"/></g><path fill="#E2D9D3" d="M782 0h782v109.538H782z"/><g clip-path="url(#d)"><path fill="#D4CAC0" d="M1305.38 34H782v50.85h.865c16.691 0 25.122 6.41 33.295 12.56 8.215 6.238 15.999 12.128 31.954 12.128 15.913 0 23.696-5.89 31.955-12.127 8.172-6.194 16.604-12.561 33.295-12.561 16.691 0 25.122 6.41 33.295 12.56 8.216 6.238 15.999 12.128 31.954 12.128 15.956 0 23.697-5.89 31.957-12.127 8.17-6.194 16.6-12.561 33.29-12.561 16.69 0 25.13 6.41 33.3 12.56 8.21 6.238 16 12.128 31.95 12.128 15.91 0 23.7-5.89 31.96-12.127 8.17-6.194 16.6-12.561 33.29-12.561 16.69 0 25.12 6.41 33.3 12.56 8.21 6.238 16 12.128 31.95 12.128 15.91 0 23.7-5.89 31.96-12.127 8.17-6.194 16.6-12.561 33.29-12.561h.74c16.21.173 24.51 6.497 32.56 12.56 8.21 6.238 16 12.128 31.95 12.128 15.91 0 23.7-5.89 31.96-12.127 8.17-6.194 16.6-12.561 33.29-12.561 16.69 0 25.12 6.41 33.3 12.56 8.21 6.238 15.99 12.128 31.95 12.128 15.96 0 23.7-5.89 31.95-12.127 7.92-5.978 16.09-12.171 31.74-12.561V34h-258.92Z"/></g><g clip-path="url(#e)"><path fill="#fff" d="M1305.38 17H782v50.85h.865c16.691 0 25.122 6.41 33.295 12.56 8.215 6.238 15.999 12.128 31.954 12.128 15.913 0 23.696-5.89 31.955-12.127 8.172-6.194 16.604-12.561 33.295-12.561 16.691 0 25.122 6.41 33.295 12.56 8.216 6.238 15.999 12.128 31.954 12.128 15.956 0 23.697-5.89 31.957-12.127 8.17-6.194 16.6-12.561 33.29-12.561 16.69 0 25.13 6.41 33.3 12.56 8.21 6.238 16 12.128 31.95 12.128 15.91 0 23.7-5.89 31.96-12.127 8.17-6.194 16.6-12.561 33.29-12.561 16.69 0 25.12 6.41 33.3 12.56 8.21 6.238 16 12.128 31.95 12.128 15.91 0 23.7-5.89 31.96-12.127 8.17-6.194 16.6-12.561 33.29-12.561h.74c16.21.173 24.51 6.497 32.56 12.56 8.21 6.238 16 12.128 31.95 12.128 15.91 0 23.7-5.89 31.96-12.127 8.17-6.194 16.6-12.561 33.29-12.561 16.69 0 25.12 6.41 33.3 12.56 8.21 6.238 15.99 12.128 31.95 12.128 15.96 0 23.7-5.89 31.95-12.127 7.92-5.978 16.09-12.171 31.74-12.561V17h-258.92Z"/></g><g clip-path="url(#f)"><path fill="#204379" d="M1305.38 0H782v50.85h.865c16.691 0 25.122 6.41 33.295 12.56 8.215 6.238 15.999 12.128 31.954 12.128 15.913 0 23.696-5.89 31.955-12.127 8.172-6.194 16.604-12.561 33.295-12.561 16.691 0 25.122 6.41 33.295 12.56 8.216 6.238 15.999 12.128 31.954 12.128 15.956 0 23.697-5.89 31.957-12.127 8.17-6.194 16.6-12.561 33.29-12.561 16.69 0 25.13 6.41 33.3 12.56 8.21 6.238 16 12.128 31.95 12.128 15.91 0 23.7-5.89 31.96-12.127 8.17-6.194 16.6-12.561 33.29-12.561 16.69 0 25.12 6.41 33.3 12.56 8.21 6.238 16 12.128 31.95 12.128 15.91 0 23.7-5.89 31.96-12.127 8.17-6.194 16.6-12.561 33.29-12.561h.74c16.21.173 24.51 6.497 32.56 12.56 8.21 6.238 16 12.128 31.95 12.128 15.91 0 23.7-5.89 31.96-12.127 8.17-6.194 16.6-12.561 33.29-12.561 16.69 0 25.12 6.41 33.3 12.56 8.21 6.238 15.99 12.128 31.95 12.128 15.96 0 23.7-5.89 31.95-12.127 7.92-5.978 16.09-12.172 31.74-12.561V0h-258.92Z"/></g><defs><clipPath id="a"><path fill="#fff" d="M0 34h782v75.538H0z"/></clipPath><clipPath id="b"><path fill="#fff" d="M0 17h782v75.538H0z"/></clipPath><clipPath id="c"><path fill="#fff" d="M0 0h782v75.538H0z"/></clipPath><clipPath id="d"><path fill="#fff" d="M782 34h782v75.538H782z"/></clipPath><clipPath id="e"><path fill="#fff" d="M782 17h782v75.538H782z"/></clipPath><clipPath id="f"><path fill="#fff" d="M782 0h782v75.538H782z"/></clipPath></defs></svg>