<svg xmlns="http://www.w3.org/2000/svg" width="58" height="58" fill="none"><g clip-path="url(#a)"><path fill="#D2A553" d="m24.7 18.799 2.1 5.2c.1.2.5.1.4-.2l-2.1-5.2c-.1-.2-.5 0-.4.2ZM17.2.3l6.2 15.3c.1.2.5.1.4-.2L17.6.1c-.1-.2-.5-.1-.4.2ZM18.7 24.9l5.1 2.2c.2.1.4-.3.2-.4l-5.1-2.2c-.2-.1-.4.3-.2.4ZM.302 17l15.2 6.5c.2.1.4-.3.2-.4l-15.2-6.4c-.2-.1-.4.2-.2.3ZM18.799 33.301l5.2-2.1c.2-.1.1-.5-.2-.4l-5.2 2.1c-.2.1 0 .5.2.4ZM.3 40.8l15.3-6.2c.2-.1.1-.5-.2-.4L.1 40.4c-.2.1-.1.5.2.4ZM24.9 39.3l2.2-5.1c.1-.2-.3-.4-.4-.2l-2.2 5.1c-.1.2.3.4.4.2ZM17.002 57.702l6.5-15.2c.1-.2-.3-.4-.4-.2l-6.5 15.2c0 .2.3.4.4.2ZM33.301 39.199l-2.1-5.2c-.1-.2-.5-.1-.4.2l2.1 5.2c.1.2.5 0 .4-.2ZM40.8 57.697l-6.2-15.3c-.1-.2-.5-.1-.4.2l6.2 15.3c.1.2.5.1.4-.2ZM39.3 33.1 34.1 31c-.2-.1-.4.3-.2.4l5.1 2.2c.3 0 .5-.4.3-.5ZM57.698 41l-15.2-6.5c-.2-.1-.4.3-.2.4l15.2 6.5c.2.1.4-.3.2-.4ZM39.199 24.7l-5.2 2.1c-.2.1-.1.5.2.4l5.2-2.1c.2-.1 0-.5-.2-.4ZM57.697 17.2l-15.3 6.2c-.2.1-.1.5.2.4l15.3-6.2c.2-.1.1-.5-.2-.4ZM33.1 18.702l-2.1 5.2c-.1.2.3.4.4.2l2.2-5.1c0-.3-.4-.5-.5-.3ZM41 .302l-6.5 15.2c-.1.2.3.4.4.2l6.5-15.2c.1-.2-.3-.4-.4-.2ZM29 6.002l-.2 18.3c0 .3.4.3.4 0l.2-18.3c0-.2-.4-.2-.4 0ZM12.8 12.7l12.9 13.1c.2.2.5-.1.3-.3l-12.9-13c-.2-.2-.5.1-.3.2ZM6.002 29.002l18.3.2c.3 0 .3-.4 0-.4l-18.3-.2c-.2 0-.2.4 0 .4ZM12.7 45.203l13.1-12.9c.2-.2-.1-.5-.3-.3l-13 13c-.2.1.1.4.2.2ZM29.002 52.002l.2-18.3c0-.3-.4-.3-.4 0l-.2 18.3c0 .2.4.2.4 0ZM45.201 45.303l-12.8-13.1c-.2-.2-.5.1-.3.3l12.9 13c.1.2.4-.1.2-.2ZM52.002 29l-18.3-.2c-.3 0-.3.4 0 .4l18.3.2c.2 0 .2-.4 0-.4ZM45.303 12.802l-13.1 12.8c-.2.2.1.5.3.3l13.1-12.9c.1-.1-.2-.4-.3-.2Z"/><path fill="url(#b)" d="M28.9 52.8c13.2 0 23.9-10.7 23.9-23.9S42.1 5 28.9 5 5 15.7 5 28.9s10.7 23.9 23.9 23.9Z"/></g><defs><linearGradient id="b" x1="10.705" x2="50.782" y1="56.99" y2="-6.182" gradientUnits="userSpaceOnUse"><stop stop-color="#E7B85E" stop-opacity="0"/><stop offset="1" stop-color="#E7B85E"/></linearGradient><clipPath id="a"><path fill="#fff" d="M0 0h58v58H0z"/></clipPath></defs></svg>