<svg xmlns="http://www.w3.org/2000/svg" width="62" height="46" fill="none"><path fill="#426FA6" d="M41.809 30.662.634 2.6C.016 2.108-.23 1.247.264.631.757.016 1.623-.23 2.24.261l41.175 28.062c.618.493.866 1.354.371 1.97-.495.615-1.36.861-1.978.369Z"/><path fill="#9DBBCE" d="M51.205 45.063 40.447 37.8c-3.709-2.461-4.575-7.508-2.102-11.077 2.473-3.692 7.543-4.554 11.129-2.092l10.757 7.261c1.855 1.231 2.35 3.693.99 5.539l-4.576 6.646c-1.113 1.723-3.586 2.215-5.44.985Z"/><path fill="#B5C6D2" d="M1.5 3.216.634 2.6C.016 2.108-.23 1.247.264.631.757.016 1.623-.23 2.24.261l.866.616c.618.493.866 1.354.37 1.97-.494.738-1.36.861-1.977.369ZM38.019 24.751l-2.144-1.458-1.605 2.337 2.144 1.459 1.605-2.338Z"/></svg>